<?xml version="1.0" encoding="UTF-8"?><svg id="a" xmlns="http://www.w3.org/2000/svg" xmlns:xlink="http://www.w3.org/1999/xlink" viewBox="0 0 365.83 11.99"><defs><clipPath id="b"><path d="m0,11.69h2.8v-4.47h3.07v-2.51h-3.07v-1.9h3.39V.3H0v11.4h0ZM10.69.3h-3.97v11.4h3.97c2.99,0,5.48-2.49,5.48-5.69S13.69.3,10.69.3m-.53,8.89h-.63V2.81h.66c1.81,0,3.07,1.15,3.07,3.19,0,2.22-1.43,3.19-3.1,3.19m6.42,2.51h2.8V.3h-2.8v11.4ZM25.53,2.87c.96,0,1.89.44,2.46,1.25V.57c-.83-.36-1.66-.57-2.56-.57-1.52,0-3.04.69-4.1,1.84-1.03,1.12-1.58,2.61-1.58,4.17,0,1.69.55,3.17,1.73,4.3,1.12,1.07,2.55,1.68,4.05,1.68.87,0,1.54-.23,2.47-.53v-3.55c-.58.74-1.5,1.21-2.41,1.21-1.75,0-2.92-1.3-2.92-3.1s1.15-3.16,2.87-3.16" style="fill:none; stroke-width:0px;"/></clipPath></defs><path d="m31.59,9l2.83-5.25h.72l.61,5.25h-.65l-.14-1.64h-1.86l-.84,1.64h-.67Zm2.22-3.02l-.46.9h1.56c-.07-.85-.16-1.76-.22-2.61h-.03c-.28.61-.54,1.13-.84,1.71Z" style="fill:#231f20; stroke-width:0px;"/><path d="m37.38,9.1c-.51,0-1.07-.28-1.32-.73l.34-.28c1.71,1.43,2.73-.31.48-1.34-.99-1.38,1.41-2.39,2.24-1.2l-.33.33c-.45-.74-2.12-.27-1.36.59,1.62.52,1.96,2.58-.05,2.62Z" style="fill:#231f20; stroke-width:0px;"/><path d="m41.14,9.1c-4.77-.89,2.34-7.51,1.6-1.9h-2.53c-.24,1.23,1.05,1.79,1.93,1.09l.23.38c-.34.25-.77.43-1.23.42Zm.46-3.58c-.64.02-1.13.6-1.3,1.22h2.02c.12-.53-.02-1.25-.71-1.22Z" style="fill:#231f20; stroke-width:0px;"/><path d="m44.5,10.76c-.5,0-.99-.18-1.35-.54l.28-.39c1.29,1.13,2.44-.14,2.5-1.53-3.96,3.15-2.44-5.64.51-2.7h.02l.15-.49h.5c-.55,1.41-.25,5.84-2.62,5.65Zm.27-2.31c1.18.08,1.42-1.5,1.54-2.34-1.17-2.06-3.44,1.96-1.54,2.34Z" style="fill:#231f20; stroke-width:0px;"/><path d="m48.73,9.1c-1.85-.04-.36-3.01-.37-3.98h.62c-.28,1.23-1.38,5.08,1.18,2.75l.54-2.75h.61l-.77,3.89h-.5l.06-.59h-.03c-.38.33-.83.69-1.34.69Z" style="fill:#231f20; stroke-width:0px;"/><path d="m51.81,9l.78-3.89h.5l-.09.74h.03c.33-.52.95-1.05,1.57-.77l-.22.54c-1.62-.49-1.72,2.43-1.97,3.38h-.61Z" style="fill:#231f20; stroke-width:0px;"/><path d="m55.66,9.1c-2.79-.37.11-5.92,1.92-3.5h.03l.15-.49h.5l-.78,3.89h-.5l.06-.58h-.03c-.35.37-.84.68-1.35.67Zm.22-.51c1.22.08,1.44-1.61,1.58-2.48-1.22-2.1-3.51,2.09-1.58,2.48Z" style="fill:#231f20; stroke-width:0px;"/><path d="m59.95,9.1c-2.78-.36.08-5.89,1.9-3.51h.02c.07-.48.33-1.78.43-2.28h.62l-1.15,5.7h-.5l.06-.58h-.03c-.35.37-.84.68-1.35.67Zm.22-.51c1.21.08,1.44-1.61,1.58-2.48-1.22-2.1-3.51,2.09-1.58,2.48Z" style="fill:#231f20; stroke-width:0px;"/><path d="m64.49,9.1c-2.44-.13-1.33-4.18.71-4.08,2.45.13,1.33,4.19-.71,4.08Zm.06-.51c1.32.03,2.16-2.89.58-3.06-1.31-.02-2.16,2.9-.58,3.06Z" style="fill:#231f20; stroke-width:0px;"/><path d="m68.22,9.1c-.51,0-1.07-.28-1.32-.73l.34-.28c1.71,1.43,2.73-.31.48-1.34-.99-1.38,1.41-2.39,2.24-1.2l-.33.33c-.45-.74-2.12-.27-1.36.59,1.62.52,1.96,2.58-.05,2.62Z" style="fill:#231f20; stroke-width:0px;"/><path d="m71.65,10.64l1.1-5.53h.5l-.05.51h.03c4-2.99,2.38,5.77-.58,2.91h-.02c-.08.49-.29,1.61-.39,2.1h-.61Zm1.93-2.06c2.19-.16,1.79-4.71-.42-2.42l-.37,1.86c.18.34.44.55.79.56Z" style="fill:#231f20; stroke-width:0px;"/><path d="m77.7,9.1c-2.44-.13-1.33-4.18.71-4.08,2.45.13,1.33,4.19-.71,4.08Zm.06-.51c1.32.03,2.16-2.89.58-3.06-1.31-.02-2.16,2.9-.58,3.06Z" style="fill:#231f20; stroke-width:0px;"/><path d="m80.37,9l.78-3.89h.5l-.09.74h.03c.33-.52.95-1.05,1.57-.77l-.22.54c-1.62-.49-1.72,2.43-1.97,3.38h-.61Z" style="fill:#231f20; stroke-width:0px;"/><path d="m85.35,9.07c-1.37.17.64-5.2.49-5.77h.62c.12.16-1.49,5.61-.77,5.25l.05.45c-.13.05-.24.07-.38.07Z" style="fill:#231f20; stroke-width:0px;"/><path d="m87.87,9.1c-2.79-.37.11-5.92,1.92-3.5h.03l.15-.49h.5l-.78,3.89h-.5l.06-.58h-.03c-.35.37-.84.68-1.35.67Zm.22-.51c1.22.08,1.44-1.61,1.58-2.48-1.22-2.1-3.51,2.09-1.58,2.48Z" style="fill:#231f20; stroke-width:0px;"/><path d="m92.61,9l1.05-5.25h2.9l-.1.52h-2.28l-.36,1.82h1.93l-.1.53h-1.92l-.48,2.38h-.62Z" style="fill:#231f20; stroke-width:0px;"/><path d="m96.4,9l1.05-5.25c5.35-.63,3.49,6.37-1.05,5.25Zm.72-.51c2.95.82,4.34-4.62.85-4.23l-.85,4.23Z" style="fill:#231f20; stroke-width:0px;"/><path d="m101.15,9l1.05-5.25h.62l-1.05,5.25h-.62Z" style="fill:#231f20; stroke-width:0px;"/><path d="m105.17,9.1c-4.12-.24-.54-7.94,2.14-4.68l-.36.32c-2.98-2.82-4.5,5.95-.53,3.37l.26.38c-.43.39-.89.62-1.51.62Z" style="fill:#231f20; stroke-width:0px;"/><path d="m109.14,7.22l.1-.47h1.75l-.1.47h-1.74Z" style="fill:#231f20; stroke-width:0px;"/><path d="m113.13,9l1.05-5.25h2.9l-.1.52h-2.28l-.34,1.7h1.93l-.11.53h-1.91l-.41,1.97h2.35l-.11.53h-2.96Z" style="fill:#231f20; stroke-width:0px;"/><path d="m118.17,9.1c-.51,0-1.07-.28-1.32-.73l.34-.28c1.71,1.43,2.73-.31.48-1.34-.99-1.38,1.41-2.39,2.24-1.2l-.33.33c-.45-.74-2.12-.27-1.36.59,1.62.52,1.96,2.58-.05,2.62Z" style="fill:#231f20; stroke-width:0px;"/><path d="m121.55,9.07c-1.74.02-.44-2.58-.42-3.46h-.57l.1-.46.6-.04.32-1.24h.52l-.25,1.24h.98l-.1.5h-1c.01.64-1.3,3.6.42,2.86l.14.41c-.21.11-.48.2-.75.19Z" style="fill:#231f20; stroke-width:0px;"/><path d="m124.04,9.1c-2.79-.37.11-5.92,1.92-3.5h.03l.15-.49h.5l-.78,3.89h-.5l.06-.58h-.03c-.35.37-.84.68-1.35.67Zm.22-.51c1.22.08,1.44-1.61,1.58-2.48-1.22-2.1-3.51,2.09-1.58,2.48Zm.29-4.14l1.25-1.32h.73l.03.07-1.47,1.25h-.54Z" style="fill:#231f20; stroke-width:0px;"/><path d="m127.15,9l.78-3.89h.5l-.06.58h.03c2.98-2.36,2.19,1.67,1.71,3.3h-.61c.27-1.24,1.37-5.07-1.2-2.75l-.55,2.75h-.61Z" style="fill:#231f20; stroke-width:0px;"/><path d="m132.95,9l.78-3.89h.5l-.09.74h.03c.33-.52.95-1.05,1.57-.77l-.22.54c-1.62-.49-1.72,2.43-1.97,3.38h-.61Z" style="fill:#231f20; stroke-width:0px;"/><path d="m137.21,9.1c-4.77-.89,2.34-7.51,1.6-1.9h-2.53c-.24,1.23,1.05,1.79,1.93,1.09l.23.38c-.34.25-.77.43-1.23.42Zm.46-3.58c-.64.02-1.13.6-1.3,1.22h2.02c.12-.53-.02-1.25-.71-1.22Z" style="fill:#231f20; stroke-width:0px;"/><path d="m140.5,9.1c-.51,0-1.07-.28-1.32-.73l.34-.28c1.71,1.43,2.73-.31.48-1.34-.99-1.38,1.41-2.39,2.24-1.2l-.33.33c-.45-.74-2.12-.27-1.36.59,1.62.52,1.96,2.58-.05,2.62Z" style="fill:#231f20; stroke-width:0px;"/><path d="m142.33,10.64l1.1-5.53h.5l-.05.51h.03c4-2.99,2.38,5.77-.58,2.91h-.02c-.08.49-.29,1.61-.39,2.1h-.61Zm1.93-2.06c2.19-.16,1.79-4.71-.42-2.42l-.37,1.86c.18.34.44.55.79.56Z" style="fill:#231f20; stroke-width:0px;"/><path d="m148.13,9.1c-2.79-.37.11-5.92,1.92-3.5h.03l.15-.49h.5l-.78,3.89h-.5l.06-.58h-.03c-.35.37-.84.68-1.35.67Zm.22-.51c1.22.08,1.44-1.61,1.58-2.48-1.22-2.1-3.51,2.09-1.58,2.48Z" style="fill:#231f20; stroke-width:0px;"/><path d="m151.89,9.07c-1.37.17.64-5.2.49-5.77h.62c.12.16-1.49,5.61-.77,5.25l.05.45c-.13.05-.24.07-.38.07Z" style="fill:#231f20; stroke-width:0px;"/><path d="m154.41,9.1c-2.78-.36.08-5.89,1.9-3.51h.02c.07-.48.33-1.78.43-2.28h.62l-1.15,5.7h-.5l.06-.58h-.03c-.35.37-.84.68-1.35.67Zm.22-.51c1.21.08,1.44-1.61,1.58-2.48-1.22-2.1-3.51,2.09-1.58,2.48Z" style="fill:#231f20; stroke-width:0px;"/><path d="m158.69,9.1c-2.79-.37.11-5.92,1.92-3.5h.03l.15-.49h.5l-.78,3.89h-.5l.06-.58h-.03c-.35.37-.84.68-1.35.67Zm.22-.51c1.22.08,1.44-1.61,1.58-2.48-1.22-2.1-3.51,2.09-1.58,2.48Z" style="fill:#231f20; stroke-width:0px;"/><path d="m162.98,9.1c-2.78-.36.08-5.89,1.9-3.51h.02c.07-.48.33-1.78.43-2.28h.62l-1.15,5.7h-.5l.06-.58h-.03c-.35.37-.84.68-1.35.67Zm.22-.51c1.21.08,1.44-1.61,1.58-2.48-1.22-2.1-3.51,2.09-1.58,2.48Z" style="fill:#231f20; stroke-width:0px;"/><path d="m167.53,9.1c-2.44-.13-1.33-4.18.71-4.08,2.45.13,1.33,4.19-.71,4.08Zm.06-.51c1.32.03,2.16-2.89.58-3.06-1.31-.02-2.16,2.9-.58,3.06Z" style="fill:#231f20; stroke-width:0px;"/><path d="m171.25,9.1c-.51,0-1.07-.28-1.32-.73l.34-.28c1.71,1.43,2.73-.31.48-1.34-.99-1.38,1.41-2.39,2.24-1.2l-.33.33c-.45-.74-2.12-.27-1.36.59,1.62.52,1.96,2.58-.05,2.62Z" style="fill:#231f20; stroke-width:0px;"/><path d="m174.68,10.64l1.1-5.53h.5l-.05.51h.03c4-2.99,2.38,5.77-.58,2.91h-.02c-.08.49-.29,1.61-.39,2.1h-.61Zm1.93-2.06c2.19-.16,1.79-4.71-.42-2.42l-.37,1.86c.18.34.44.55.79.56Z" style="fill:#231f20; stroke-width:0px;"/><path d="m180.73,9.1c-2.44-.13-1.33-4.18.71-4.08,2.45.13,1.33,4.19-.71,4.08Zm.06-.51c1.32.03,2.16-2.89.58-3.06-1.31-.02-2.16,2.9-.58,3.06Z" style="fill:#231f20; stroke-width:0px;"/><path d="m183.4,9l.78-3.89h.5l-.09.74h.03c.33-.52.95-1.05,1.57-.77l-.22.54c-1.62-.49-1.72,2.43-1.97,3.38h-.61Z" style="fill:#231f20; stroke-width:0px;"/><path d="m188.38,9.07c-1.37.17.63-5.2.49-5.77h.62c.12.16-1.49,5.6-.77,5.25l.05.45c-.13.05-.24.07-.38.07Z" style="fill:#231f20; stroke-width:0px;"/><path d="m190.9,9.1c-2.79-.37.11-5.92,1.92-3.5h.03l.15-.49h.5l-.78,3.89h-.5l.06-.58h-.03c-.35.37-.84.68-1.35.67Zm.22-.51c1.22.08,1.44-1.61,1.58-2.48-1.22-2.1-3.51,2.09-1.58,2.48Z" style="fill:#231f20; stroke-width:0px;"/><path d="m195.29,10.64l1.1-5.53h.5l-.05.51h.03c4-2.99,2.38,5.77-.58,2.91h-.02c-.08.49-.29,1.61-.39,2.1h-.61Zm1.93-2.06c2.19-.15,1.79-4.71-.42-2.42l-.37,1.86c.18.34.43.55.79.56Z" style="fill:#231f20; stroke-width:0px;"/><path d="m200.54,9.07c-1.37.17.64-5.2.49-5.77h.62c.12.16-1.49,5.61-.77,5.25l.05.45c-.13.05-.24.07-.38.07Z" style="fill:#231f20; stroke-width:0px;"/><path d="m203.48,9.1c-4.77-.89,2.34-7.51,1.6-1.9h-2.53c-.24,1.23,1.05,1.79,1.93,1.09l.23.38c-.34.25-.77.43-1.23.42Zm.46-3.58c-.64.02-1.13.6-1.3,1.22h2.02c.12-.53-.02-1.25-.71-1.22Z" style="fill:#231f20; stroke-width:0px;"/><path d="m205.72,9l.78-3.89h.5l-.06.58h.03c2.98-2.36,2.19,1.67,1.71,3.3h-.61c.27-1.25,1.37-5.07-1.2-2.75l-.55,2.75h-.61Z" style="fill:#231f20; stroke-width:0px;"/><path d="m211.1,9.1c-2.79-.37.11-5.92,1.92-3.5h.03l.15-.49h.5l-.78,3.89h-.5l.06-.58h-.03c-.35.37-.84.68-1.35.67Zm.22-.51c1.22.08,1.44-1.61,1.58-2.48-1.22-2.1-3.51,2.09-1.58,2.48Z" style="fill:#231f20; stroke-width:0px;"/><path d="m215.91,9l.68-3.39h-.54l.1-.46.55-.04c.05-1.11.84-2.45,2.05-1.71l-.21.42c-.88-.53-1.16.63-1.23,1.29h.78l-.1.5h-.79l-.68,3.39h-.61Z" style="fill:#231f20; stroke-width:0px;"/><path d="m219.59,9.1c-4.77-.89,2.34-7.51,1.6-1.9h-2.53c-.24,1.23,1.05,1.79,1.93,1.09l.23.38c-.34.25-.77.43-1.23.42Zm.46-3.58c-.64.02-1.13.6-1.3,1.22h2.02c.12-.53-.02-1.25-.71-1.22Z" style="fill:#231f20; stroke-width:0px;"/><path d="m223.16,10.67c-.16,0-.35-.03-.48-.11l.18-.46c.69.28,1.2-.48,1.46-1.06l-.67-3.93h.63c.11.78.36,2.54.44,3.3h.03c.36-.76,1.27-2.53,1.67-3.3h.62c-.9,1.13-2.16,5.51-3.89,5.56Z" style="fill:#231f20; stroke-width:0px;"/><path d="m230.09,9.1c-3.18-.23-.45-5.79,1.74-3.61l-.34.34c-2.23-1.76-3.29,4.24-.42,2.42l.26.35c-.33.29-.76.5-1.25.49Z" style="fill:#231f20; stroke-width:0px;"/><path d="m232.09,9l.78-3.89h.5l-.09.74h.03c.33-.52.95-1.05,1.57-.77l-.22.54c-1.62-.49-1.72,2.43-1.97,3.38h-.61Z" style="fill:#231f20; stroke-width:0px;"/><path d="m236.35,9.1c-4.77-.89,2.34-7.51,1.6-1.9h-2.53c-.24,1.23,1.05,1.79,1.93,1.09l.23.38c-.34.25-.77.43-1.23.42Zm.46-3.58c-.64.02-1.13.6-1.3,1.22h2.02c.12-.53-.02-1.25-.71-1.22Zm-.46-1.07l1.25-1.32h.73l.03.07-1.47,1.25h-.54Z" style="fill:#231f20; stroke-width:0px;"/><path d="m239.78,9.1c-2.78-.36.08-5.89,1.9-3.51h.02c.07-.48.33-1.78.43-2.28h.62l-1.15,5.7h-.5l.06-.58h-.03c-.35.37-.84.68-1.35.67Zm.22-.51c1.21.08,1.44-1.61,1.58-2.48-1.22-2.1-3.51,2.09-1.58,2.48Z" style="fill:#231f20; stroke-width:0px;"/><path d="m242.88,9l.78-3.89h.62l-.78,3.89h-.61Zm1.28-4.7c-.58.01-.45-.85.07-.82.58-.01.45.86-.07.82Z" style="fill:#231f20; stroke-width:0px;"/><path d="m245.99,9.07c-1.74.02-.44-2.58-.42-3.46h-.57l.1-.46.6-.04.32-1.24h.52l-.25,1.24h.98l-.1.5h-1c.01.64-1.29,3.6.42,2.86l.14.41c-.21.11-.48.2-.75.19Z" style="fill:#231f20; stroke-width:0px;"/><path d="m248.74,9.1c-2.44-.13-1.33-4.18.71-4.08,2.45.13,1.34,4.19-.71,4.08Zm.06-.51c1.32.03,2.16-2.89.59-3.06-1.31-.02-2.16,2.9-.59,3.06Z" style="fill:#231f20; stroke-width:0px;"/><path d="m254.19,9.1c-2.78-.36.08-5.89,1.9-3.51h.02c.07-.48.33-1.78.43-2.28h.62l-1.15,5.7h-.5l.06-.58h-.03c-.35.37-.84.68-1.35.67Zm.22-.51c1.21.08,1.44-1.61,1.58-2.48-1.22-2.1-3.51,2.09-1.58,2.48Z" style="fill:#231f20; stroke-width:0px;"/><path d="m258.88,9.1c-4.77-.89,2.34-7.51,1.6-1.9h-2.53c-.24,1.23,1.05,1.79,1.93,1.09l.23.38c-.34.25-.77.43-1.23.42Zm.46-3.58c-.64.02-1.13.6-1.3,1.22h2.02c.12-.53-.02-1.25-.71-1.22Z" style="fill:#231f20; stroke-width:0px;"/><path d="m261.77,9.07c-1.37.17.63-5.2.49-5.77h.62c.12.16-1.49,5.6-.77,5.25l.05.45c-.13.05-.24.07-.38.07Z" style="fill:#231f20; stroke-width:0px;"/><path d="m265.83,10.76c-.5,0-.99-.18-1.35-.54l.28-.39c1.29,1.13,2.44-.14,2.5-1.53-3.96,3.15-2.44-5.64.51-2.7h.02l.15-.49h.5c-.55,1.41-.25,5.84-2.62,5.65Zm.27-2.31c1.18.08,1.41-1.5,1.54-2.34-1.17-2.07-3.44,1.96-1.54,2.34Z" style="fill:#231f20; stroke-width:0px;"/><path d="m270.4,9.1c-2.44-.13-1.33-4.18.71-4.08,2.45.13,1.33,4.19-.71,4.08Zm.06-.51c1.32.03,2.16-2.89.58-3.06-1.31-.02-2.16,2.9-.58,3.06Z" style="fill:#231f20; stroke-width:0px;"/><path d="m274.69,9.1c-.41,0-.75-.23-.94-.58h-.02l-.16.49h-.5l1.14-5.7h.62c-.1.51-.37,1.8-.49,2.29h.02c3.06-2.43,3.19,3.51.34,3.5Zm-.02-.51c2.18-.16,1.8-4.7-.42-2.42l-.37,1.85c.18.35.43.57.79.58Z" style="fill:#231f20; stroke-width:0px;"/><path d="m277.36,9l.78-3.89h.62l-.78,3.89h-.61Zm1.28-4.7c-.58.01-.45-.85.07-.82.58-.01.45.86-.07.82Z" style="fill:#231f20; stroke-width:0px;"/><path d="m280.85,9.1c-4.77-.89,2.34-7.51,1.6-1.9h-2.53c-.24,1.23,1.05,1.79,1.93,1.09l.23.38c-.34.25-.77.43-1.23.42Zm.46-3.58c-.64.02-1.13.6-1.3,1.22h2.02c.12-.53-.02-1.25-.71-1.22Z" style="fill:#231f20; stroke-width:0px;"/><path d="m283.09,9l.78-3.89h.5l-.09.74h.03c.33-.52.95-1.05,1.57-.77l-.22.54c-1.62-.49-1.72,2.43-1.97,3.38h-.61Z" style="fill:#231f20; stroke-width:0px;"/><path d="m285.83,9l.78-3.89h.5l-.06.58h.03c2.98-2.36,2.19,1.67,1.71,3.3h-.61c.27-1.24,1.37-5.07-1.2-2.75l-.55,2.75h-.61Z" style="fill:#231f20; stroke-width:0px;"/><path d="m291.48,9.1c-2.44-.13-1.33-4.18.71-4.08,2.45.13,1.34,4.19-.71,4.08Zm.06-.51c1.32.03,2.16-2.89.59-3.06-1.31-.02-2.16,2.9-.59,3.06Z" style="fill:#231f20; stroke-width:0px;"/><path d="m296.92,9.1c-2.78-.36.08-5.89,1.9-3.51h.02c.07-.48.33-1.78.43-2.28h.62l-1.15,5.7h-.5l.06-.58h-.03c-.35.37-.84.68-1.35.67Zm.22-.51c1.21.08,1.44-1.61,1.58-2.48-1.22-2.1-3.51,2.09-1.58,2.48Z" style="fill:#231f20; stroke-width:0px;"/><path d="m301.62,9.1c-4.77-.89,2.34-7.51,1.6-1.9h-2.53c-.24,1.23,1.05,1.79,1.93,1.09l.23.38c-.34.25-.77.43-1.23.42Zm.46-3.58c-.64.02-1.13.6-1.3,1.22h2.02c.12-.53-.02-1.25-.71-1.22Z" style="fill:#231f20; stroke-width:0px;"/><path d="m306.11,9.07c-1.37.17.64-5.2.49-5.77h.62c.12.16-1.49,5.61-.77,5.25l.05.45c-.13.05-.24.07-.38.07Z" style="fill:#231f20; stroke-width:0px;"/><path d="m308.89,9.1c-2.44-.13-1.33-4.18.71-4.08,2.45.13,1.34,4.19-.71,4.08Zm.06-.51c1.32.03,2.16-2.89.59-3.06-1.31-.02-2.16,2.9-.59,3.06Z" style="fill:#231f20; stroke-width:0px;"/><path d="m312.61,9.1c-.51,0-1.07-.28-1.32-.73l.34-.28c1.71,1.43,2.73-.31.48-1.34-.99-1.38,1.41-2.39,2.24-1.2l-.33.33c-.45-.74-2.12-.27-1.36.59,1.62.52,1.96,2.58-.05,2.62Z" style="fill:#231f20; stroke-width:0px;"/><path d="m316.4,9l1.05-5.25h2.9l-.1.52h-2.28l-.34,1.7h1.93l-.11.53h-1.91l-.41,1.97h2.35l-.11.53h-2.96Z" style="fill:#231f20; stroke-width:0px;"/><path d="m321.44,9.1c-.51,0-1.07-.28-1.32-.73l.34-.28c1.71,1.43,2.73-.31.48-1.34-.99-1.38,1.41-2.39,2.24-1.2l-.33.33c-.45-.74-2.12-.27-1.36.59,1.62.52,1.96,2.58-.05,2.62Z" style="fill:#231f20; stroke-width:0px;"/><path d="m324.82,9.07c-1.74.02-.44-2.58-.42-3.46h-.57l.1-.46.6-.04.32-1.24h.52l-.25,1.24h.98l-.1.5h-1c.01.64-1.29,3.6.42,2.86l.14.41c-.21.11-.48.2-.75.19Z" style="fill:#231f20; stroke-width:0px;"/><path d="m327.3,9.1c-2.79-.37.11-5.92,1.92-3.5h.03l.15-.49h.5l-.78,3.89h-.5l.06-.58h-.03c-.35.37-.84.68-1.35.67Zm.22-.51c1.22.08,1.44-1.61,1.58-2.48-1.22-2.1-3.51,2.09-1.58,2.48Z" style="fill:#231f20; stroke-width:0px;"/><path d="m331.59,9.1c-2.78-.36.08-5.89,1.9-3.51h.02c.07-.48.33-1.78.43-2.28h.62l-1.15,5.7h-.5l.06-.58h-.03c-.35.37-.84.68-1.35.67Zm.22-.51c1.21.08,1.44-1.61,1.58-2.48-1.22-2.1-3.51,2.09-1.58,2.48Z" style="fill:#231f20; stroke-width:0px;"/><path d="m336.14,9.1c-2.44-.13-1.33-4.18.71-4.08,2.45.13,1.33,4.19-.71,4.08Zm.06-.51c1.32.03,2.16-2.89.58-3.06-1.31-.02-2.16,2.9-.58,3.06Z" style="fill:#231f20; stroke-width:0px;"/><path d="m339.86,9.1c-.5,0-1.07-.28-1.32-.73l.34-.28c1.71,1.43,2.73-.31.48-1.34-.99-1.38,1.41-2.39,2.24-1.2l-.33.33c-.45-.74-2.12-.27-1.36.59,1.62.52,1.96,2.58-.05,2.62Z" style="fill:#231f20; stroke-width:0px;"/><path d="m345.66,9.1c-2.85.05-1.14-3.8-.98-5.34h.62c-.1,1.24-1.87,5.63.96,4.66.99-.6,1.07-3.65,1.42-4.66h.61c-.53,1.54-.28,5.41-2.62,5.34Z" style="fill:#231f20; stroke-width:0px;"/><path d="m348.55,9l.78-3.89h.5l-.06.58h.03c2.98-2.36,2.19,1.67,1.71,3.3h-.61c.27-1.25,1.37-5.07-1.2-2.75l-.55,2.75h-.61Z" style="fill:#231f20; stroke-width:0px;"/><path d="m352.75,9l.78-3.89h.62l-.78,3.89h-.61Zm1.28-4.7c-.59.01-.45-.85.07-.82.58-.01.45.86-.07.82Z" style="fill:#231f20; stroke-width:0px;"/><path d="m355.83,9.1c-2.77-.36.08-5.89,1.9-3.51h.02c.07-.48.33-1.78.43-2.28h.62l-1.15,5.7h-.5l.06-.58h-.03c-.35.37-.84.68-1.35.67Zm.22-.51c1.21.08,1.44-1.61,1.58-2.48-1.22-2.1-3.51,2.09-1.58,2.48Z" style="fill:#231f20; stroke-width:0px;"/><path d="m360.37,9.1c-2.44-.13-1.33-4.18.71-4.08,2.45.13,1.33,4.19-.71,4.08Zm.06-.51c1.32.03,2.16-2.89.58-3.06-1.31-.02-2.16,2.9-.58,3.06Z" style="fill:#231f20; stroke-width:0px;"/><path d="m364.09,9.1c-.5,0-1.07-.28-1.32-.73l.34-.28c1.71,1.43,2.73-.31.48-1.34-.99-1.38,1.41-2.39,2.24-1.2l-.33.33c-.45-.74-2.12-.27-1.36.59,1.62.52,1.96,2.58-.05,2.62Z" style="fill:#231f20; stroke-width:0px;"/><g style="clip-path:url(#b);"><rect x="-1" y="-1" width="30" height="13.99" style="fill:#103356; stroke-width:0px;"/></g></svg>