<?xml version="1.0" encoding="utf-8"?>
<svg viewBox="38.400001525878906 26.5 53.099998474121094 52.599998474121094" xmlns="http://www.w3.org/2000/svg">
  <g fill="#E31837">
    <path d="M75.076 51.65l.022-3.7 2.5.015-.022 3.7z"/>
    <path d="M86.9 51.2c-1-3.3-3.2-6.3-6.3-8.6l.6-9.1-8.6 5.2-.4-.1-.7 2.4 1.4.4 5.4-3.3-.4 5.7.9.7c2.8 2.1 4.8 4.8 5.6 7.7l.3 1.2 4 .9v4.3l-4.5.8-.5 1c-1.4 3-4.1 5.7-7.6 7.5l-2 1 3 5-3.1 1.8-3.4-5.7-1.4.2c-1.5.3-3.1.4-4.6.4-1.5 0-3.1-.2-4.6-.4l-1.4-.3-3.4 5.7-3.1-1.8 3-5-1.9-1.1c-5.4-2.9-8.5-7.6-8.5-12.5 0-4.8 3.2-9.4 8.4-12.3.2-.1.5-.3.8-.4l-1-2.3c-.3.1-.7.3-1 .5-5.7 3.1-9.2 8.1-9.6 13.6-.3 0-.6-.1-.9-.3-.1-.1-.5-.4-.5-1.5h-2.5c0 1.9.8 3 1.5 3.5s1.5.8 2.5.9c.6 5.2 3.9 9.9 9.3 13l-3 4.9 7.5 4.3 3.8-6.3c1.6.3 3.1.4 4.7.4s3.2-.1 4.7-.4l3.8 6.3 7.5-4.2-2.7-5.1c3.7-2 6.6-5 8.2-8.3l5.3-1v-8.4l-4.6-.9z"/>
    <path d="M58.4 42.2l.4.2.5-.1c1.8-.5 4.5-1 7.7-.8h.5l.4-.3c1.8-1.6 2.8-3.7 2.8-6.1.1-2.2-.8-4.4-2.3-6-1.5-1.6-3.6-2.5-5.9-2.6-2.2 0-4.4.8-6 2.3-1.6 1.5-2.5 3.6-2.6 5.9.1 3.1 1.7 6 4.5 7.5zm0-11.6c1.1-1 2.5-1.6 4-1.6h.1c1.6 0 3 .7 4.1 1.8 1.1 1.1 1.7 2.6 1.6 4.2 0 1.5-.6 2.8-1.6 3.9-2.4-.1-5 .2-7.4.8-1.7-1.1-2.7-3-2.6-5 0-1.5.6-3 1.8-4.1z"/>
  </g>
</svg>