<?xml version="1.0" encoding="UTF-8"?>
<svg width="375px" height="60px" viewBox="0 0 375 60" version="1.1" xmlns="http://www.w3.org/2000/svg" xmlns:xlink="http://www.w3.org/1999/xlink">
    <title>FDIC-ES-MDA-10-07-2024</title>
    <g id="FDIC-ES-MDA-10-07-2024" stroke="none" stroke-width="1" fill="none" fill-rule="evenodd">
        <g id="FDIC-Signage-ES-MDA-10-2024" transform="translate(-1, 4.0018)">
            <text id="Los-productos-de-inv" font-family="SFProText-Bold, SF Pro Text" font-size="8" font-weight="bold" fill="#333333">
                <tspan x="16" y="43.6287482">Los productos de inversiones no están asegurados por la FDIC.</tspan>
            </text>
            <g id="FDIC-Signage-ES-MDA-07-26" transform="translate(16, 19.8639)" fill-rule="nonzero">
                <g id="shape-es" transform="translate(31.693, 3.5358)" fill="#333333">
                    <path d="M1.7,2.1753699 L1.4,2.86753305 L2.6,2.86753305 L2.5,2.1753699 C2.5,1.977609 2.5,1.7798481 2.4,1.5820872 C2.4,1.3843263 2.4,1.1865654 2.3,0.889924051 L2.3,0.889924051 C2.2,1.08768495 2.1,1.28544585 2,1.5820872 C1.9,1.68096765 1.8,1.87872855 1.7,2.1753699 Z M-1.42108547e-14,4.3507398 L2.1,0.49440225 L2.6,0.49440225 L3.1,4.3507398 L2.6,4.3507398 L2.5,3.1641744 L1.1,3.1641744 L0.5,4.3507398 L-1.42108547e-14,4.3507398 Z" id="Shape"></path>
                    <path d="M4.4,4.44962025 C4.2,4.44962025 4,4.44962025 3.8,4.3507398 C3.6,4.25185935 3.5,4.1529789 3.4,3.955218 L3.7,3.7574571 C3.8,3.85633755 3.9,3.955218 4,4.05409845 C4.1,4.1529789 4.3,4.1529789 4.4,4.1529789 C4.6,4.1529789 4.7,4.1529789 4.8,4.05409845 C4.9,3.955218 5,3.85633755 5,3.7574571 C5,3.65857665 5,3.5596962 4.9,3.46081575 C4.8,3.3619353 4.7,3.26305485 4.4,3.1641744 C4.2,3.06529395 4.1,2.9664135 4,2.86753305 C3.9,2.7686526 3.8,2.5708917 3.8,2.47201125 C3.8,2.27425035 3.8,2.1753699 3.9,2.07648945 C4,1.977609 4.1,1.87872855 4.3,1.7798481 C4.4,1.68096765 4.6,1.68096765 4.8,1.68096765 C5,1.68096765 5.1,1.68096765 5.3,1.7798481 C5.4,1.87872855 5.6,1.977609 5.7,2.07648945 L5.5,2.27425035 C5.4,2.1753699 5.3,2.07648945 5.2,2.07648945 C5.1,1.977609 5,1.977609 4.8,1.977609 C4.6,1.977609 4.5,1.977609 4.4,2.07648945 C4.3,2.1753699 4.3,2.27425035 4.3,2.3731308 C4.3,2.47201125 4.3,2.5708917 4.4,2.66977215 C4.5,2.7686526 4.6,2.86753305 4.8,2.86753305 C5,2.9664135 5.2,3.1641744 5.3,3.26305485 C5.4,3.3619353 5.5,3.5596962 5.5,3.65857665 C5.5,3.85633755 5.5,3.955218 5.4,4.1529789 C5.3,4.25185935 5.2,4.3507398 5,4.44962025 C4.8,4.44962025 4.6,4.44962025 4.4,4.44962025 Z" id="Path"></path>
                    <path d="M7.5,1.7798481 C7.4,1.7798481 7.2,1.7798481 7.1,1.87872855 C7,1.977609 6.9,2.07648945 6.7,2.1753699 C6.6,2.27425035 6.5,2.47201125 6.5,2.66977215 L8,2.66977215 C8,2.66977215 8,2.5708917 8,2.5708917 C8,2.5708917 8,2.47201125 8,2.47201125 C8,2.27425035 8,2.1753699 7.9,1.977609 C7.9,1.87872855 7.7,1.7798481 7.5,1.7798481 Z M7.2,4.44962025 C6.8,4.44962025 6.6,4.3507398 6.4,4.1529789 C6.2,3.955218 6.1,3.65857665 6.1,3.26305485 C6.1,2.9664135 6.1,2.7686526 6.2,2.5708917 C6.3,2.3731308 6.4,2.1753699 6.6,1.977609 C6.8,1.7798481 6.9,1.68096765 7.1,1.5820872 C7.3,1.48320675 7.5,1.48320675 7.7,1.48320675 C7.9,1.48320675 8.1,1.48320675 8.2,1.5820872 C8.3,1.68096765 8.4,1.7798481 8.5,1.977609 C8.6,2.1753699 8.6,2.27425035 8.6,2.47201125 C8.6,2.5708917 8.6,2.66977215 8.6,2.7686526 C8.6,2.86753305 8.6,2.9664135 8.5,3.06529395 L6.6,3.06529395 C6.6,3.06529395 6.6,3.06529395 6.6,3.1641744 C6.6,3.1641744 6.6,3.1641744 6.6,3.26305485 C6.6,3.46081575 6.6,3.65857665 6.7,3.85633755 C6.8,3.955218 6.9,4.05409845 7,4.1529789 C7.1,4.25185935 7.3,4.25185935 7.4,4.25185935 C7.5,4.25185935 7.6,4.25185935 7.8,4.1529789 C7.9,4.1529789 8,4.05409845 8.1,3.955218 L8.3,4.25185935 C8.2,4.3507398 8,4.44962025 7.9,4.44962025 C7.8,4.44962025 7.4,4.44962025 7.2,4.44962025 Z" id="Shape_00000080925459059283974730000003915135208573061565_"></path>
                    <path d="M9.7,5.63618565 C9.5,5.63618565 9.3,5.63618565 9.2,5.5373052 C9,5.43842475 8.9,5.3395443 8.7,5.24066385 L8.9,4.9440225 C9,5.04290295 9.1,5.1417834 9.3,5.1417834 C9.5,5.1417834 9.6,5.24066385 9.7,5.24066385 C9.9,5.24066385 10.1,5.1417834 10.3,5.04290295 C10.4,4.84514205 10.6,4.64738115 10.6,4.44962025 L10.8,3.85633755 C10.6,4.05409845 10.5,4.1529789 10.3,4.25185935 C10.1,4.3507398 10,4.3507398 9.8,4.3507398 C9.6,4.3507398 9.4,4.25185935 9.2,4.05409845 C9,3.85633755 9,3.65857665 9,3.26305485 C9,2.9664135 9,2.7686526 9.1,2.47201125 C9.2,2.27425035 9.3,2.07648945 9.4,1.87872855 C9.5,1.68096765 9.7,1.5820872 9.9,1.48320675 C10.1,1.3843263 10.3,1.28544585 10.5,1.28544585 C10.7,1.28544585 10.8,1.28544585 10.9,1.3843263 C11,1.48320675 11.1,1.5820872 11.2,1.68096765 L11.2,1.68096765 L11.3,1.28544585 L11.7,1.28544585 L11.1,4.3507398 C11,4.7462616 10.9,5.04290295 10.6,5.24066385 C10.3,5.43842475 10.1,5.63618565 9.7,5.63618565 Z M9.9,3.955218 C10,3.955218 10.2,3.955218 10.4,3.85633755 C10.6,3.7574571 10.7,3.65857665 10.8,3.46081575 L11.1,2.1753699 C11,1.977609 10.9,1.87872855 10.8,1.87872855 C10.7,1.7798481 10.6,1.7798481 10.5,1.7798481 C10.4,1.7798481 10.2,1.7798481 10.1,1.87872855 C10,1.977609 9.9,2.07648945 9.8,2.1753699 C9.7,2.27425035 9.6,2.47201125 9.6,2.66977215 C9.5,2.86753305 9.5,3.06529395 9.5,3.26305485 C9.5,3.46081575 9.5,3.65857665 9.6,3.7574571 C9.6,3.85633755 9.8,3.955218 9.9,3.955218 Z" id="Shape_00000055674180629726537290000011816373520398993797_"></path>
                    <path d="M12.9,4.44962025 C12.7,4.44962025 12.5,4.3507398 12.4,4.25185935 C12.3,4.1529789 12.2,3.955218 12.2,3.7574571 C12.2,3.65857665 12.2,3.65857665 12.2,3.5596962 C12.2,3.46081575 12.2,3.46081575 12.2,3.3619353 L12.6,1.48320675 L13.1,1.48320675 L12.7,3.26305485 C12.7,3.3619353 12.7,3.3619353 12.7,3.46081575 C12.7,3.5596962 12.7,3.5596962 12.7,3.65857665 C12.7,3.955218 12.8,4.1529789 13.1,4.1529789 C13.2,4.1529789 13.3,4.1529789 13.5,4.05409845 C13.7,3.955218 13.8,3.85633755 14,3.65857665 L14.4,1.5820872 L14.9,1.5820872 L14.3,4.44962025 L13.9,4.44962025 L13.9,4.05409845 L13.9,4.05409845 C13.7,4.1529789 13.6,4.3507398 13.4,4.44962025 C13.2,4.3507398 13.1,4.44962025 12.9,4.44962025 Z" id="Path_00000125578478547690616100000005789392786326062746_"></path>
                    <path d="M15.2,4.3507398 L15.8,1.48320675 L16.2,1.48320675 L16.1,2.07648945 L16.1,2.07648945 C16.2,1.87872855 16.4,1.7798481 16.5,1.68096765 C16.7,1.5820872 16.8,1.48320675 17,1.48320675 C17.1,1.48320675 17.2,1.48320675 17.3,1.5820872 L17.1,1.977609 C17.1,1.977609 17,1.977609 17,1.977609 C17,1.977609 16.9,1.977609 16.9,1.977609 C16.8,1.977609 16.6,2.07648945 16.5,2.1753699 C16.3,2.27425035 16.2,2.47201125 16.1,2.66977215 L15.7,4.44962025 L15.2,4.44962025 L15.2,4.3507398 Z" id="Path_00000142163959833121687440000006304287142500048551_"></path>
                    <path d="M18.1,4.44962025 C17.8,4.44962025 17.6,4.3507398 17.5,4.1529789 C17.3,3.955218 17.3,3.7574571 17.3,3.3619353 C17.3,3.06529395 17.3,2.86753305 17.4,2.5708917 C17.5,2.3731308 17.6,2.07648945 17.8,1.977609 C17.9,1.7798481 18.1,1.68096765 18.3,1.5820872 C18.5,1.48320675 18.7,1.3843263 18.9,1.3843263 C19.1,1.3843263 19.2,1.3843263 19.3,1.48320675 C19.4,1.5820872 19.5,1.68096765 19.6,1.7798481 L19.6,1.7798481 L19.7,1.3843263 L20.1,1.3843263 L19.5,4.25185935 L19.1,4.25185935 L19.1,3.85633755 L19.1,3.85633755 C19,3.955218 18.8,4.1529789 18.6,4.25185935 C18.5,4.3507398 18.3,4.44962025 18.1,4.44962025 Z M18.3,4.05409845 C18.5,4.05409845 18.6,4.05409845 18.8,3.955218 C19,3.85633755 19.1,3.7574571 19.3,3.5596962 L19.6,2.27425035 C19.5,2.07648945 19.4,1.977609 19.3,1.977609 C19.2,1.87872855 19.1,1.87872855 19,1.87872855 C18.9,1.87872855 18.7,1.87872855 18.6,1.977609 C18.5,2.07648945 18.3,2.1753699 18.2,2.27425035 C18.1,2.3731308 18,2.5708917 17.9,2.7686526 C17.8,2.9664135 17.8,3.1641744 17.8,3.3619353 C17.8,3.65857665 17.8,3.7574571 17.9,3.955218 C18,4.05409845 18.1,4.05409845 18.3,4.05409845 Z" id="Shape_00000092441160013873736880000005504635496460263065_"></path>
                    <path d="M21.3,4.44962025 C21,4.44962025 20.8,4.3507398 20.7,4.1529789 C20.6,3.955218 20.5,3.7574571 20.5,3.3619353 C20.5,3.06529395 20.5,2.86753305 20.6,2.5708917 C20.7,2.27425035 20.8,2.07648945 21,1.977609 C21.1,1.7798481 21.3,1.68096765 21.5,1.5820872 C21.7,1.48320675 21.9,1.3843263 22.1,1.3843263 C22.3,1.3843263 22.4,1.3843263 22.5,1.48320675 C22.6,1.5820872 22.7,1.68096765 22.8,1.7798481 L22.8,1.7798481 L22.9,1.1865654 L23.1,0.0988804501 L23.6,0.0988804501 L22.7,4.3507398 L22.3,4.3507398 L22.3,3.955218 L22.3,3.955218 C22.2,4.05409845 22,4.25185935 21.8,4.3507398 C21.7,4.3507398 21.5,4.44962025 21.3,4.44962025 Z M21.5,4.05409845 C21.7,4.05409845 21.8,4.05409845 22,3.955218 C22.2,3.85633755 22.3,3.7574571 22.5,3.5596962 L22.8,2.27425035 C22.7,2.07648945 22.6,1.977609 22.5,1.977609 C22.4,1.87872855 22.3,1.87872855 22.2,1.87872855 C22.1,1.87872855 21.9,1.87872855 21.8,1.977609 C21.7,2.07648945 21.5,2.1753699 21.4,2.27425035 C21.3,2.3731308 21.2,2.5708917 21.1,2.7686526 C21,2.9664135 21,3.1641744 21,3.3619353 C21,3.65857665 21,3.7574571 21.1,3.955218 C21.2,4.05409845 21.3,4.05409845 21.5,4.05409845 Z" id="Shape_00000035518303429759335220000001501486746974639751_"></path>
                    <path d="M24.8,4.44962025 C24.5,4.44962025 24.2,4.3507398 24,4.1529789 C23.8,3.955218 23.7,3.65857665 23.7,3.26305485 C23.7,2.9664135 23.7,2.7686526 23.8,2.47201125 C23.9,2.27425035 24,2.07648945 24.2,1.87872855 C24.4,1.68096765 24.5,1.5820872 24.7,1.48320675 C24.9,1.3843263 25.1,1.3843263 25.3,1.3843263 C25.6,1.3843263 25.9,1.48320675 26.1,1.68096765 C26.3,1.87872855 26.4,2.1753699 26.4,2.5708917 C26.4,2.86753305 26.4,3.06529395 26.3,3.3619353 C26.2,3.5596962 26.1,3.7574571 25.9,3.955218 C25.7,4.1529789 25.6,4.25185935 25.4,4.3507398 C25.2,4.44962025 24.9,4.44962025 24.8,4.44962025 Z M24.8,4.05409845 C25,4.05409845 25.2,3.955218 25.3,3.85633755 C25.5,3.7574571 25.6,3.5596962 25.7,3.3619353 C25.8,3.1641744 25.9,2.86753305 25.9,2.66977215 C25.9,2.3731308 25.8,2.1753699 25.7,2.07648945 C25.6,1.977609 25.4,1.87872855 25.2,1.87872855 C25,1.87872855 24.8,1.977609 24.7,2.07648945 C24.5,2.1753699 24.4,2.3731308 24.3,2.5708917 C24.2,2.7686526 24.1,3.06529395 24.1,3.26305485 C24.1,3.5596962 24.2,3.7574571 24.3,3.85633755 C24.4,3.955218 24.6,4.05409845 24.8,4.05409845 Z" id="Shape_00000153689340295043877520000006863121193415866010_"></path>
                    <path d="M27.6,4.44962025 C27.4,4.44962025 27.2,4.44962025 27,4.3507398 C26.8,4.25185935 26.7,4.1529789 26.6,3.955218 L26.9,3.7574571 C27,3.85633755 27.1,3.955218 27.2,4.05409845 C27.3,4.1529789 27.5,4.1529789 27.6,4.1529789 C27.8,4.1529789 27.9,4.1529789 28,4.05409845 C28.1,3.955218 28.2,3.85633755 28.2,3.7574571 C28.2,3.65857665 28.2,3.5596962 28.1,3.46081575 C28,3.3619353 27.9,3.26305485 27.6,3.1641744 C27.4,3.06529395 27.3,2.9664135 27.2,2.86753305 C27.1,2.7686526 27,2.5708917 27,2.47201125 C27,2.27425035 27,2.1753699 27.1,2.07648945 C27.2,1.977609 27.3,1.87872855 27.5,1.7798481 C27.6,1.68096765 27.8,1.68096765 28,1.68096765 C28.2,1.68096765 28.3,1.68096765 28.5,1.7798481 C28.6,1.87872855 28.8,1.977609 28.9,2.07648945 L28.7,2.27425035 C28.6,2.1753699 28.5,2.07648945 28.4,2.07648945 C28.3,1.977609 28.2,1.977609 28,1.977609 C27.8,1.977609 27.7,1.977609 27.6,2.07648945 C27.5,2.1753699 27.5,2.27425035 27.5,2.3731308 C27.5,2.47201125 27.5,2.5708917 27.6,2.66977215 C27.7,2.7686526 27.8,2.86753305 28,2.86753305 C28.2,2.9664135 28.4,3.1641744 28.5,3.26305485 C28.6,3.3619353 28.7,3.5596962 28.7,3.65857665 C28.7,3.85633755 28.7,3.955218 28.6,4.1529789 C28.5,4.25185935 28.4,4.3507398 28.2,4.44962025 C27.9,4.44962025 27.8,4.44962025 27.6,4.44962025 Z" id="Path_00000073708315200174290970000011318474065936906893_"></path>
                    <path d="M30.1,5.63618565 L30.9,1.48320675 L31.3,1.48320675 L31.3,1.87872855 L31.3,1.87872855 C31.4,1.7798481 31.6,1.68096765 31.8,1.5820872 C32,1.48320675 32.1,1.48320675 32.3,1.48320675 C32.6,1.48320675 32.8,1.5820872 32.9,1.7798481 C33.1,1.977609 33.1,2.1753699 33.1,2.5708917 C33.1,2.86753305 33.1,3.06529395 33,3.3619353 C32.9,3.5596962 32.8,3.85633755 32.6,3.955218 C32.5,4.1529789 32.3,4.25185935 32.1,4.3507398 C31.9,4.44962025 31.7,4.5485007 31.5,4.5485007 C31.3,4.5485007 31.2,4.5485007 31.1,4.44962025 C31,4.3507398 30.9,4.25185935 30.8,4.1529789 L30.8,4.1529789 L30.7,4.7462616 L30.5,5.7350661 L30.1,5.7350661 L30.1,5.63618565 Z M31.6,4.05409845 C31.7,4.05409845 31.9,4.05409845 32,3.955218 C32.1,3.85633755 32.3,3.7574571 32.4,3.65857665 C32.5,3.5596962 32.6,3.3619353 32.6,3.1641744 C32.6,2.9664135 32.7,2.7686526 32.7,2.5708917 C32.7,2.3731308 32.7,2.1753699 32.6,1.977609 C32.5,1.87872855 32.4,1.7798481 32.2,1.7798481 C32.1,1.7798481 31.9,1.7798481 31.8,1.87872855 C31.6,1.977609 31.5,2.07648945 31.3,2.27425035 L31,3.65857665 C31.1,3.7574571 31.2,3.955218 31.3,3.955218 C31.4,4.05409845 31.5,4.05409845 31.6,4.05409845 Z" id="Shape_00000075847654163879918000000015493992228869562796_"></path>
                    <path d="M34.7,4.44962025 C34.4,4.44962025 34.1,4.3507398 33.9,4.1529789 C33.7,3.955218 33.6,3.65857665 33.6,3.26305485 C33.6,2.9664135 33.6,2.7686526 33.7,2.47201125 C33.8,2.27425035 33.9,2.07648945 34.1,1.87872855 C34.3,1.68096765 34.4,1.5820872 34.6,1.48320675 C34.8,1.3843263 35,1.3843263 35.2,1.3843263 C35.5,1.3843263 35.8,1.48320675 36,1.68096765 C36.2,1.87872855 36.3,2.1753699 36.3,2.5708917 C36.3,2.86753305 36.3,3.06529395 36.2,3.3619353 C36.1,3.5596962 36,3.7574571 35.8,3.955218 C35.6,4.1529789 35.5,4.25185935 35.3,4.3507398 C35.1,4.44962025 34.9,4.44962025 34.7,4.44962025 Z M34.7,4.05409845 C34.9,4.05409845 35.1,3.955218 35.2,3.85633755 C35.4,3.7574571 35.5,3.5596962 35.6,3.3619353 C35.7,3.1641744 35.8,2.86753305 35.8,2.66977215 C35.8,2.3731308 35.7,2.1753699 35.6,2.07648945 C35.5,1.977609 35.3,1.87872855 35.1,1.87872855 C34.9,1.87872855 34.7,1.977609 34.6,2.07648945 C34.4,2.1753699 34.3,2.3731308 34.2,2.5708917 C34.1,2.7686526 34,3.06529395 34,3.26305485 C34,3.5596962 34.1,3.7574571 34.2,3.85633755 C34.4,3.955218 34.5,4.05409845 34.7,4.05409845 Z" id="Shape_00000034054679220245016360000005477080849872815002_"></path>
                    <path d="M36.7,4.3507398 L37.3,1.48320675 L37.7,1.48320675 L37.6,2.07648945 L37.6,2.07648945 C37.7,1.87872855 37.9,1.7798481 38,1.68096765 C38.2,1.5820872 38.3,1.48320675 38.5,1.48320675 C38.6,1.48320675 38.7,1.48320675 38.8,1.5820872 L38.6,1.977609 C38.6,1.977609 38.5,1.977609 38.5,1.977609 C38.5,1.977609 38.4,1.977609 38.4,1.977609 C38.3,1.977609 38.1,2.07648945 38,2.1753699 C37.8,2.27425035 37.7,2.47201125 37.6,2.66977215 L37.2,4.44962025 L36.7,4.44962025 L36.7,4.3507398 Z" id="Path_00000050632500617553376810000012437590991146434432_"></path>
                    <path d="M40.4,4.44962025 C40.1,4.44962025 40,4.3507398 40,4.05409845 C40,3.955218 40,3.85633755 40,3.85633755 L40.7,0.1977609 L41.2,0.1977609 L40.4,3.85633755 C40.4,3.85633755 40.4,3.955218 40.4,3.955218 C40.4,3.955218 40.4,3.955218 40.4,4.05409845 C40.4,4.1529789 40.4,4.1529789 40.5,4.1529789 C40.5,4.1529789 40.5,4.1529789 40.5,4.1529789 C40.5,4.1529789 40.5,4.1529789 40.6,4.1529789 L40.6,4.44962025 C40.6,4.44962025 40.5,4.44962025 40.5,4.44962025 C40.5,4.44962025 40.5,4.44962025 40.4,4.44962025 Z" id="Path_00000029756758385558478400000006507379914787797404_"></path>
                    <path d="M42.3,4.44962025 C42,4.44962025 41.8,4.3507398 41.7,4.1529789 C41.5,3.955218 41.5,3.7574571 41.5,3.3619353 C41.5,3.06529395 41.5,2.86753305 41.6,2.5708917 C41.7,2.27425035 41.8,2.07648945 42,1.977609 C42.2,1.87872855 42.3,1.68096765 42.5,1.5820872 C42.7,1.48320675 42.9,1.3843263 43.1,1.3843263 C43.3,1.3843263 43.4,1.3843263 43.5,1.48320675 C43.6,1.5820872 43.7,1.68096765 43.8,1.7798481 L43.8,1.7798481 L43.9,1.3843263 L44.3,1.3843263 L43.7,4.25185935 L43.3,4.25185935 L43.3,3.85633755 L43.3,3.85633755 C43.2,3.955218 43,4.1529789 42.8,4.25185935 C42.6,4.3507398 42.5,4.44962025 42.3,4.44962025 Z M42.5,4.05409845 C42.7,4.05409845 42.8,4.05409845 43,3.955218 C43.2,3.85633755 43.3,3.7574571 43.5,3.5596962 L43.8,2.27425035 C43.7,2.07648945 43.6,1.977609 43.5,1.977609 C43.4,1.87872855 43.3,1.87872855 43.2,1.87872855 C43.1,1.87872855 42.9,1.87872855 42.8,1.977609 C42.7,2.07648945 42.5,2.1753699 42.4,2.27425035 C42.3,2.3731308 42.2,2.5708917 42.1,2.7686526 C42,2.9664135 42,3.1641744 42,3.3619353 C42,3.65857665 42,3.7574571 42.1,3.955218 C42.2,4.05409845 42.3,4.05409845 42.5,4.05409845 Z" id="Shape_00000121983932326579982920000002264454623611890335_"></path>
                    <polygon id="Path_00000003783802888134893500000002927233572233706404_" points="45.9 4.3507398 46.7 0.49440225 48.9 0.49440225 48.8 0.889924051 47.1 0.889924051 46.8 2.1753699 48.3 2.1753699 48.2 2.5708917 46.7 2.5708917 46.4 4.3507398"></polygon>
                    <path d="M48.8,4.3507398 L49.6,0.49440225 L50.3,0.49440225 C50.8,0.49440225 51.3,0.5932827 51.5,0.889924051 C51.8,1.1865654 51.9,1.5820872 51.9,1.977609 C51.9,2.47201125 51.8,2.86753305 51.6,3.1641744 C51.4,3.46081575 51.2,3.7574571 50.9,3.955218 C50.6,4.1529789 50.2,4.25185935 49.8,4.25185935 L48.8,4.25185935 L48.8,4.3507398 Z M49.3,3.955218 L49.8,3.955218 C50.1,3.955218 50.4,3.85633755 50.7,3.65857665 C50.9,3.46081575 51.1,3.26305485 51.3,2.9664135 C51.4,2.66977215 51.5,2.3731308 51.5,1.977609 C51.5,1.5820872 51.4,1.28544585 51.2,1.08768495 C51,0.889924051 50.7,0.791043601 50.3,0.791043601 L50,0.791043601 L49.3,3.955218 Z" id="Shape_00000073690455994904241650000002446582722754226353_"></path>
                    <polygon id="Path_00000098934378974836103440000009797038376569219517_" points="52.3 4.3507398 53.1 0.49440225 53.6 0.49440225 52.8 4.3507398"></polygon>
                    <path d="M55.4,4.44962025 C55.1,4.44962025 54.9,4.3507398 54.6,4.25185935 C54.4,4.1529789 54.2,3.955218 54.1,3.65857665 C54,3.46081575 53.9,3.1641744 53.9,2.86753305 C53.9,2.5708917 53.9,2.27425035 54,1.977609 C54.1,1.68096765 54.2,1.3843263 54.4,1.1865654 C54.6,0.988804501 54.8,0.791043601 55,0.5932827 C55.2,0.49440225 55.5,0.3955218 55.8,0.3955218 C56,0.3955218 56.2,0.49440225 56.4,0.5932827 C56.6,0.69216315 56.7,0.791043601 56.8,0.988804501 L56.5,1.1865654 C56.3,0.889924051 56.1,0.791043601 55.8,0.791043601 C55.6,0.791043601 55.4,0.889924051 55.2,0.988804501 C55,1.08768495 54.9,1.28544585 54.7,1.48320675 C54.5,1.68096765 54.5,1.87872855 54.4,2.1753699 C54.3,2.3731308 54.3,2.66977215 54.3,2.86753305 C54.3,3.06529395 54.3,3.26305485 54.4,3.46081575 C54.5,3.65857665 54.6,3.7574571 54.7,3.85633755 C54.8,3.955218 55,4.05409845 55.3,4.05409845 C55.5,4.05409845 55.6,4.05409845 55.8,3.955218 C55.9,3.85633755 56.1,3.85633755 56.2,3.7574571 L56.4,4.05409845 C56.3,4.1529789 56.1,4.25185935 55.9,4.3507398 C55.7,4.44962025 55.6,4.44962025 55.4,4.44962025 Z" id="Path_00000108303822132403098360000007582452035885036167_"></path>
                    <polygon id="Path_00000113320353692281650850000006764277426781667500_" points="58.3 3.06529395 58.4 2.66977215 59.7 2.66977215 59.7 3.06529395"></polygon>
                    <polygon id="Path_00000106111920774962150170000001508183077087090837_" points="61.3 4.3507398 62.1 0.49440225 64.3 0.49440225 64.2 0.889924051 62.5 0.889924051 62.3 2.07648945 63.7 2.07648945 63.6 2.47201125 62.2 2.47201125 61.9 3.955218 63.7 3.955218 63.6 4.3507398"></polygon>
                    <path d="M65.1,4.44962025 C64.9,4.44962025 64.7,4.44962025 64.5,4.3507398 C64.3,4.25185935 64.2,4.1529789 64.1,3.955218 L64.4,3.7574571 C64.5,3.85633755 64.6,3.955218 64.7,4.05409845 C64.8,4.1529789 65,4.1529789 65.1,4.1529789 C65.3,4.1529789 65.4,4.1529789 65.5,4.05409845 C65.6,3.955218 65.7,3.85633755 65.7,3.7574571 C65.7,3.65857665 65.7,3.5596962 65.6,3.46081575 C65.5,3.3619353 65.4,3.26305485 65.1,3.1641744 C64.9,3.06529395 64.8,2.9664135 64.7,2.86753305 C64.6,2.7686526 64.5,2.5708917 64.5,2.47201125 C64.5,2.27425035 64.5,2.1753699 64.6,2.07648945 C64.7,1.977609 64.8,1.87872855 65,1.7798481 C65.1,1.68096765 65.3,1.68096765 65.5,1.68096765 C65.7,1.68096765 65.8,1.68096765 66,1.7798481 C66.1,1.87872855 66.3,1.977609 66.4,2.07648945 L66.2,2.27425035 C66.1,2.1753699 66,2.07648945 65.9,2.07648945 C65.8,1.977609 65.7,1.977609 65.5,1.977609 C65.3,1.977609 65.2,1.977609 65.1,2.07648945 C65,2.1753699 65,2.27425035 65,2.3731308 C65,2.47201125 65,2.5708917 65.1,2.66977215 C65.2,2.7686526 65.3,2.86753305 65.5,2.86753305 C65.7,2.9664135 65.9,3.1641744 66,3.26305485 C66.1,3.3619353 66.2,3.5596962 66.2,3.65857665 C66.2,3.85633755 66.2,3.955218 66.1,4.1529789 C66,4.25185935 65.9,4.3507398 65.7,4.44962025 C65.5,4.5485007 65.3,4.44962025 65.1,4.44962025 Z" id="Path_00000007402937413764956730000015653067097379812793_"></path>
                    <path d="M67.7,4.44962025 C67.5,4.44962025 67.3,4.3507398 67.2,4.25185935 C67.1,4.1529789 67,3.955218 67,3.7574571 C67,3.65857665 67,3.65857665 67,3.5596962 C67,3.46081575 67,3.46081575 67,3.3619353 L67.3,1.7798481 L66.9,1.7798481 L67,1.48320675 L67.5,1.48320675 L67.7,0.5932827 L68.1,0.5932827 L67.9,1.48320675 L68.6,1.48320675 L68.5,1.87872855 L67.7,1.87872855 L67.4,3.5596962 C67.4,3.65857665 67.4,3.65857665 67.4,3.7574571 C67.4,3.85633755 67.4,3.955218 67.5,4.05409845 C67.6,4.1529789 67.6,4.1529789 67.8,4.1529789 C67.9,4.1529789 68,4.1529789 68.1,4.05409845 L68.2,4.3507398 C68.1,4.3507398 68.1,4.44962025 68,4.44962025 C67.9,4.44962025 67.8,4.44962025 67.7,4.44962025 Z" id="Path_00000124861818929903448650000012613291865375819921_"></path>
                    <path d="M69.5,4.44962025 C69.2,4.44962025 69,4.3507398 68.9,4.1529789 C68.8,3.955218 68.7,3.7574571 68.7,3.3619353 C68.7,3.06529395 68.7,2.86753305 68.8,2.5708917 C68.9,2.27425035 69,2.07648945 69.2,1.977609 C69.4,1.87872855 69.5,1.68096765 69.7,1.5820872 C69.9,1.48320675 70.1,1.3843263 70.3,1.3843263 C70.5,1.3843263 70.6,1.3843263 70.7,1.48320675 C70.8,1.5820872 70.9,1.68096765 71,1.7798481 L71,1.7798481 L71.1,1.3843263 L71.5,1.3843263 L70.9,4.25185935 L70.5,4.25185935 L70.5,3.85633755 L70.5,3.85633755 C70.4,3.955218 70.2,4.1529789 70,4.25185935 C69.8,4.3507398 69.7,4.44962025 69.5,4.44962025 Z M69.7,4.05409845 C69.9,4.05409845 70,4.05409845 70.2,3.955218 C70.4,3.85633755 70.5,3.7574571 70.7,3.5596962 L71,2.27425035 C70.9,2.07648945 70.8,1.977609 70.7,1.977609 C70.6,1.87872855 70.5,1.87872855 70.4,1.87872855 C70.3,1.87872855 70.1,1.87872855 70,1.977609 C69.9,2.07648945 69.7,2.1753699 69.6,2.27425035 C69.5,2.3731308 69.4,2.5708917 69.3,2.7686526 C69.2,2.9664135 69.2,3.1641744 69.2,3.3619353 C69.2,3.65857665 69.2,3.7574571 69.3,3.955218 C69.4,4.05409845 69.6,4.05409845 69.7,4.05409845 Z M69.9,0.988804501 L70.8,0 L71.3,0 L71.3,0.0988804501 L70.2,0.988804501 L69.9,0.988804501 Z" id="Shape_00000065038481687325373070000006339257901598584726_"></path>
                    <path d="M71.9,4.3507398 L72.5,1.48320675 L72.9,1.48320675 L72.9,1.87872855 L72.9,1.87872855 C73.1,1.7798481 73.2,1.5820872 73.4,1.48320675 C73.6,1.3843263 73.7,1.3843263 73.9,1.3843263 C74.1,1.3843263 74.3,1.48320675 74.4,1.5820872 C74.5,1.68096765 74.6,1.87872855 74.6,2.07648945 C74.6,2.1753699 74.6,2.3731308 74.6,2.47201125 L74.2,4.3507398 L73.7,4.3507398 L74.1,2.5708917 C74.1,2.47201125 74.1,2.47201125 74.1,2.3731308 C74.1,2.3731308 74.1,2.27425035 74.1,2.1753699 C74.1,1.87872855 74,1.68096765 73.7,1.68096765 C73.6,1.68096765 73.5,1.68096765 73.3,1.7798481 C73.1,1.87872855 73,1.977609 72.8,2.1753699 L72.4,4.25185935 L71.9,4.25185935 L71.9,4.3507398 Z" id="Path_00000089537838072102918730000005412382907099232691_"></path>
                    <path d="M76.3,4.3507398 L76.9,1.48320675 L77.3,1.48320675 L77.2,2.07648945 L77.2,2.07648945 C77.3,1.87872855 77.5,1.7798481 77.6,1.68096765 C77.8,1.5820872 77.9,1.48320675 78.1,1.48320675 C78.2,1.48320675 78.3,1.48320675 78.4,1.5820872 L78.2,1.977609 C78.2,1.977609 78.1,1.977609 78.1,1.977609 C78.1,1.977609 78,1.977609 78,1.977609 C77.9,1.977609 77.7,2.07648945 77.6,2.1753699 C77.4,2.27425035 77.3,2.47201125 77.2,2.66977215 L76.8,4.44962025 L76.3,4.44962025 L76.3,4.3507398 Z" id="Path_00000010997394800332721940000005591633698982784432_"></path>
                    <path d="M79.8,1.7798481 C79.7,1.7798481 79.5,1.7798481 79.4,1.87872855 C79.3,1.977609 79.2,2.07648945 79,2.1753699 C78.9,2.27425035 78.8,2.47201125 78.8,2.66977215 L80.3,2.66977215 C80.3,2.66977215 80.3,2.5708917 80.3,2.5708917 C80.3,2.5708917 80.3,2.47201125 80.3,2.47201125 C80.3,2.27425035 80.3,2.1753699 80.2,1.977609 C80.2,1.87872855 80,1.7798481 79.8,1.7798481 Z M79.5,4.44962025 C79.1,4.44962025 78.9,4.3507398 78.7,4.1529789 C78.5,3.955218 78.4,3.65857665 78.4,3.26305485 C78.4,2.9664135 78.4,2.7686526 78.5,2.5708917 C78.6,2.3731308 78.7,2.1753699 78.9,1.977609 C79.1,1.7798481 79.2,1.68096765 79.4,1.5820872 C79.6,1.48320675 79.8,1.48320675 80,1.48320675 C80.2,1.48320675 80.4,1.48320675 80.5,1.5820872 C80.6,1.68096765 80.7,1.7798481 80.8,1.977609 C80.9,2.1753699 80.9,2.27425035 80.9,2.47201125 C80.9,2.5708917 80.9,2.66977215 80.9,2.7686526 C80.9,2.86753305 80.9,2.9664135 80.8,3.06529395 L78.9,3.06529395 C78.9,3.06529395 78.9,3.06529395 78.9,3.1641744 C78.9,3.1641744 78.9,3.1641744 78.9,3.26305485 C78.9,3.46081575 78.9,3.65857665 79,3.85633755 C79.1,3.955218 79.2,4.05409845 79.3,4.1529789 C79.4,4.25185935 79.6,4.25185935 79.7,4.25185935 C79.8,4.25185935 79.9,4.25185935 80.1,4.1529789 C80.2,4.1529789 80.3,4.05409845 80.4,3.955218 L80.6,4.25185935 C80.5,4.3507398 80.3,4.44962025 80.2,4.44962025 C79.8,4.44962025 79.6,4.44962025 79.5,4.44962025 Z" id="Shape_00000156567169206978785450000003623166983540930963_"></path>
                    <path d="M81.9,4.44962025 C81.7,4.44962025 81.5,4.44962025 81.3,4.3507398 C81.1,4.25185935 81,4.1529789 80.9,3.955218 L81.2,3.7574571 C81.3,3.85633755 81.4,3.955218 81.5,4.05409845 C81.6,4.1529789 81.8,4.1529789 81.9,4.1529789 C82.1,4.1529789 82.2,4.1529789 82.3,4.05409845 C82.4,3.955218 82.5,3.85633755 82.5,3.7574571 C82.5,3.65857665 82.5,3.5596962 82.4,3.46081575 C82.3,3.3619353 82.2,3.26305485 81.9,3.1641744 C81.7,3.06529395 81.6,2.9664135 81.5,2.86753305 C81.4,2.7686526 81.3,2.5708917 81.3,2.47201125 C81.3,2.27425035 81.3,2.1753699 81.4,2.07648945 C81.5,1.977609 81.6,1.87872855 81.8,1.7798481 C81.9,1.68096765 82.1,1.68096765 82.3,1.68096765 C82.5,1.68096765 82.6,1.68096765 82.8,1.7798481 C82.9,1.87872855 83.1,1.977609 83.2,2.07648945 L83,2.27425035 C82.9,2.1753699 82.8,2.07648945 82.7,2.07648945 C82.6,1.977609 82.5,1.977609 82.3,1.977609 C82.1,1.977609 82,1.977609 81.9,2.07648945 C81.8,2.1753699 81.8,2.27425035 81.8,2.3731308 C81.8,2.47201125 81.8,2.5708917 81.9,2.66977215 C82,2.7686526 82.1,2.86753305 82.3,2.86753305 C82.5,2.9664135 82.7,3.1641744 82.8,3.26305485 C82.9,3.3619353 83,3.5596962 83,3.65857665 C83,3.85633755 83,3.955218 82.9,4.1529789 C82.8,4.25185935 82.7,4.3507398 82.5,4.44962025 C82.3,4.44962025 82.1,4.44962025 81.9,4.44962025 Z" id="Path_00000006698538696025857840000010666017810763113378_"></path>
                    <path d="M83.3,5.63618565 L84.1,1.48320675 L84.5,1.48320675 L84.5,1.87872855 L84.5,1.87872855 C84.6,1.7798481 84.8,1.68096765 85,1.5820872 C85.2,1.48320675 85.3,1.48320675 85.5,1.48320675 C85.8,1.48320675 86,1.5820872 86.1,1.7798481 C86.3,1.977609 86.3,2.1753699 86.3,2.5708917 C86.3,2.86753305 86.3,3.06529395 86.2,3.3619353 C86.1,3.5596962 86,3.85633755 85.8,3.955218 C85.7,4.1529789 85.5,4.25185935 85.3,4.3507398 C85.1,4.44962025 84.9,4.5485007 84.7,4.5485007 C84.5,4.5485007 84.4,4.5485007 84.3,4.44962025 C84.2,4.3507398 84.1,4.25185935 84,4.1529789 L84,4.1529789 L83.9,4.7462616 L83.7,5.7350661 L83.3,5.7350661 L83.3,5.63618565 Z M84.8,4.05409845 C84.9,4.05409845 85.1,4.05409845 85.2,3.955218 C85.3,3.85633755 85.5,3.7574571 85.6,3.65857665 C85.7,3.5596962 85.8,3.3619353 85.8,3.1641744 C85.8,2.9664135 85.9,2.7686526 85.9,2.5708917 C85.9,2.3731308 85.9,2.1753699 85.8,1.977609 C85.7,1.87872855 85.6,1.7798481 85.4,1.7798481 C85.3,1.7798481 85.1,1.7798481 85,1.87872855 C84.8,1.977609 84.7,2.07648945 84.5,2.27425035 L84.2,3.65857665 C84.3,3.7574571 84.4,3.955218 84.5,3.955218 C84.5,4.05409845 84.7,4.05409845 84.8,4.05409845 Z" id="Shape_00000174560799149888843600000007148811514097691299_"></path>
                    <path d="M87.7,4.44962025 C87.4,4.44962025 87.2,4.3507398 87.1,4.1529789 C87,3.955218 86.9,3.7574571 86.9,3.3619353 C86.9,3.06529395 86.9,2.86753305 87,2.5708917 C87.1,2.27425035 87.2,2.07648945 87.4,1.977609 C87.6,1.87872855 87.7,1.68096765 87.9,1.5820872 C88.1,1.48320675 88.3,1.3843263 88.5,1.3843263 C88.7,1.3843263 88.8,1.3843263 88.9,1.48320675 C89,1.5820872 89.1,1.68096765 89.2,1.7798481 L89.2,1.7798481 L89.3,1.3843263 L89.7,1.3843263 L89.1,4.25185935 L88.7,4.25185935 L88.7,3.85633755 L88.7,3.85633755 C88.6,3.955218 88.4,4.1529789 88.2,4.25185935 C88,4.3507398 87.9,4.44962025 87.7,4.44962025 Z M87.8,4.05409845 C88,4.05409845 88.1,4.05409845 88.3,3.955218 C88.5,3.85633755 88.6,3.7574571 88.8,3.5596962 L89.1,2.27425035 C89,2.07648945 88.9,1.977609 88.8,1.977609 C88.7,1.87872855 88.6,1.87872855 88.5,1.87872855 C88.4,1.87872855 88.2,1.87872855 88.1,1.977609 C88,2.07648945 87.8,2.1753699 87.7,2.27425035 C87.6,2.3731308 87.5,2.5708917 87.4,2.7686526 C87.3,2.9664135 87.3,3.1641744 87.3,3.3619353 C87.3,3.65857665 87.3,3.7574571 87.4,3.955218 C87.6,4.05409845 87.7,4.05409845 87.8,4.05409845 Z" id="Shape_00000060751605727684546480000015248359111542220682_"></path>
                    <path d="M90.5,4.44962025 C90.2,4.44962025 90.1,4.3507398 90.1,4.05409845 C90.1,3.955218 90.1,3.85633755 90.1,3.85633755 L90.8,0.1977609 L91.3,0.1977609 L90.5,3.85633755 C90.5,3.85633755 90.5,3.955218 90.5,3.955218 C90.5,3.955218 90.5,3.955218 90.5,4.05409845 C90.5,4.1529789 90.5,4.1529789 90.6,4.1529789 C90.6,4.1529789 90.6,4.1529789 90.6,4.1529789 C90.6,4.1529789 90.6,4.1529789 90.7,4.1529789 L90.7,4.44962025 C90.7,4.44962025 90.6,4.44962025 90.6,4.44962025 C90.6,4.44962025 90.6,4.44962025 90.5,4.44962025 Z" id="Path_00000085228822311584371030000007496998116409070777_"></path>
                    <path d="M92.4,4.44962025 C92.1,4.44962025 91.9,4.3507398 91.8,4.1529789 C91.7,3.955218 91.6,3.7574571 91.6,3.3619353 C91.6,3.06529395 91.6,2.86753305 91.7,2.5708917 C91.8,2.3731308 91.9,2.07648945 92.1,1.977609 C92.2,1.7798481 92.4,1.68096765 92.6,1.5820872 C92.8,1.48320675 93,1.3843263 93.2,1.3843263 C93.4,1.3843263 93.5,1.3843263 93.6,1.48320675 C93.7,1.5820872 93.8,1.68096765 93.9,1.7798481 L93.9,1.7798481 L94,1.1865654 L94.2,0.0988804501 L94.7,0.0988804501 L93.8,4.3507398 L93.4,4.3507398 L93.4,3.955218 L93.4,3.955218 C93.3,4.05409845 93.1,4.25185935 92.9,4.3507398 C92.8,4.3507398 92.6,4.44962025 92.4,4.44962025 Z M92.6,4.05409845 C92.8,4.05409845 92.9,4.05409845 93.1,3.955218 C93.3,3.85633755 93.4,3.7574571 93.6,3.5596962 L93.9,2.27425035 C93.8,2.07648945 93.7,1.977609 93.6,1.977609 C93.5,1.977609 93.4,1.87872855 93.3,1.87872855 C93.2,1.87872855 93,1.87872855 92.9,1.977609 C92.8,2.07648945 92.6,2.1753699 92.5,2.27425035 C92.4,2.3731308 92.3,2.5708917 92.2,2.7686526 C92.1,2.9664135 92.1,3.1641744 92.1,3.3619353 C92.1,3.65857665 92.1,3.7574571 92.2,3.955218 C92.3,4.05409845 92.4,4.05409845 92.6,4.05409845 Z" id="Shape_00000146493573729145618710000006927911921925364353_"></path>
                    <path d="M95.6,4.44962025 C95.3,4.44962025 95.1,4.3507398 95,4.1529789 C94.8,3.955218 94.8,3.7574571 94.8,3.3619353 C94.8,3.06529395 94.8,2.86753305 94.9,2.5708917 C95,2.3731308 95.1,2.07648945 95.3,1.977609 C95.5,1.87872855 95.6,1.68096765 95.8,1.5820872 C96,1.48320675 96.2,1.3843263 96.4,1.3843263 C96.6,1.3843263 96.7,1.3843263 96.8,1.48320675 C96.9,1.5820872 97,1.68096765 97.1,1.7798481 L97.1,1.7798481 L97.2,1.3843263 L97.6,1.3843263 L97,4.25185935 L96.6,4.25185935 L96.6,3.85633755 L96.6,3.85633755 C96.5,3.955218 96.3,4.1529789 96.1,4.25185935 C95.9,4.3507398 95.8,4.44962025 95.6,4.44962025 Z M95.8,4.05409845 C96,4.05409845 96.1,4.05409845 96.3,3.955218 C96.5,3.85633755 96.6,3.7574571 96.8,3.5596962 L97.1,2.27425035 C97,2.07648945 96.9,1.977609 96.8,1.977609 C96.7,1.87872855 96.6,1.87872855 96.5,1.87872855 C96.4,1.87872855 96.2,1.87872855 96.1,1.977609 C96,2.07648945 95.8,2.1753699 95.7,2.27425035 C95.6,2.3731308 95.5,2.5708917 95.4,2.7686526 C95.3,2.9664135 95.3,3.1641744 95.3,3.3619353 C95.3,3.65857665 95.3,3.7574571 95.4,3.955218 C95.5,4.05409845 95.6,4.05409845 95.8,4.05409845 Z" id="Shape_00000183218303983698574260000012068765654744932504_"></path>
                    <path d="M98.8,4.44962025 C98.5,4.44962025 98.3,4.3507398 98.2,4.1529789 C98.1,3.955218 98,3.7574571 98,3.3619353 C98,3.06529395 98,2.86753305 98.1,2.5708917 C98.2,2.27425035 98.3,2.07648945 98.5,1.977609 C98.6,1.7798481 98.8,1.68096765 99,1.5820872 C99.2,1.48320675 99.4,1.3843263 99.6,1.3843263 C99.8,1.3843263 99.9,1.3843263 100,1.48320675 C100.1,1.5820872 100.2,1.68096765 100.3,1.7798481 L100.3,1.7798481 L100.4,1.1865654 L100.6,0.0988804501 L101.1,0.0988804501 L100.2,4.3507398 L99.8,4.3507398 L99.8,3.955218 L99.8,3.955218 C99.7,4.05409845 99.5,4.25185935 99.3,4.3507398 C99.2,4.3507398 99,4.44962025 98.8,4.44962025 Z M99,4.05409845 C99.2,4.05409845 99.3,4.05409845 99.5,3.955218 C99.7,3.85633755 99.8,3.7574571 100,3.5596962 L100.3,2.27425035 C100.2,2.07648945 100.1,1.977609 100,1.977609 C99.9,1.977609 99.8,1.87872855 99.7,1.87872855 C99.6,1.87872855 99.4,1.87872855 99.3,1.977609 C99.2,2.07648945 99,2.1753699 98.9,2.27425035 C98.8,2.3731308 98.7,2.5708917 98.6,2.7686526 C98.5,2.9664135 98.5,3.1641744 98.5,3.3619353 C98.5,3.65857665 98.5,3.7574571 98.6,3.955218 C98.7,4.05409845 98.9,4.05409845 99,4.05409845 Z" id="Shape_00000081618603161509777420000004065089977648878493_"></path>
                    <path d="M102.3,4.44962025 C102,4.44962025 101.7,4.3507398 101.5,4.1529789 C101.3,3.955218 101.2,3.65857665 101.2,3.26305485 C101.2,2.9664135 101.2,2.7686526 101.3,2.47201125 C101.4,2.27425035 101.5,2.07648945 101.7,1.87872855 C101.9,1.68096765 102,1.5820872 102.2,1.48320675 C102.4,1.3843263 102.6,1.3843263 102.8,1.3843263 C103.1,1.3843263 103.4,1.48320675 103.6,1.68096765 C103.8,1.87872855 103.9,2.1753699 103.9,2.5708917 C103.9,2.86753305 103.9,3.06529395 103.8,3.3619353 C103.7,3.5596962 103.6,3.7574571 103.4,3.955218 C103.2,4.1529789 103.1,4.25185935 102.9,4.3507398 C102.7,4.44962025 102.5,4.44962025 102.3,4.44962025 Z M102.3,4.05409845 C102.5,4.05409845 102.7,3.955218 102.8,3.85633755 C103,3.7574571 103.1,3.5596962 103.2,3.3619353 C103.3,3.1641744 103.4,2.86753305 103.4,2.66977215 C103.4,2.3731308 103.3,2.1753699 103.2,2.07648945 C103.1,1.977609 102.9,1.87872855 102.7,1.87872855 C102.5,1.87872855 102.3,1.977609 102.2,2.07648945 C102,2.1753699 101.9,2.3731308 101.8,2.5708917 C101.7,2.7686526 101.6,3.06529395 101.6,3.26305485 C101.6,3.5596962 101.7,3.7574571 101.8,3.85633755 C102,3.955218 102.1,4.05409845 102.3,4.05409845 Z" id="Shape_00000168093671043604979360000002555259044235609740_"></path>
                    <path d="M105.1,4.44962025 C104.9,4.44962025 104.7,4.44962025 104.5,4.3507398 C104.3,4.25185935 104.2,4.1529789 104.1,3.955218 L104.4,3.7574571 C104.5,3.85633755 104.6,3.955218 104.7,4.05409845 C104.8,4.1529789 105,4.1529789 105.1,4.1529789 C105.3,4.1529789 105.4,4.1529789 105.5,4.05409845 C105.6,3.955218 105.7,3.85633755 105.7,3.7574571 C105.7,3.65857665 105.7,3.5596962 105.6,3.46081575 C105.5,3.3619353 105.4,3.26305485 105.1,3.1641744 C104.9,3.06529395 104.8,2.9664135 104.7,2.86753305 C104.6,2.7686526 104.5,2.5708917 104.5,2.47201125 C104.5,2.27425035 104.5,2.1753699 104.6,2.07648945 C104.7,1.977609 104.8,1.87872855 105,1.7798481 C105.1,1.68096765 105.3,1.68096765 105.5,1.68096765 C105.7,1.68096765 105.8,1.68096765 106,1.7798481 C106.1,1.87872855 106.3,1.977609 106.4,2.07648945 L106.2,2.27425035 C106.1,2.1753699 106,2.07648945 105.9,2.07648945 C105.8,1.977609 105.7,1.977609 105.5,1.977609 C105.3,1.977609 105.2,1.977609 105.1,2.07648945 C105,2.1753699 105,2.27425035 105,2.3731308 C105,2.47201125 105,2.5708917 105.1,2.66977215 C105.2,2.7686526 105.3,2.86753305 105.5,2.86753305 C105.7,2.9664135 105.9,3.1641744 106,3.26305485 C106.1,3.3619353 106.2,3.5596962 106.2,3.65857665 C106.2,3.85633755 106.2,3.955218 106.1,4.1529789 C106,4.25185935 105.9,4.3507398 105.7,4.44962025 C105.5,4.44962025 105.3,4.44962025 105.1,4.44962025 Z" id="Path_00000109736708916758307980000012185308830440197530_"></path>
                    <path d="M107.6,5.63618565 L108.4,1.48320675 L108.8,1.48320675 L108.8,1.87872855 L108.8,1.87872855 C108.9,1.7798481 109.1,1.68096765 109.3,1.5820872 C109.5,1.48320675 109.6,1.48320675 109.8,1.48320675 C110.1,1.48320675 110.3,1.5820872 110.4,1.7798481 C110.6,1.977609 110.6,2.1753699 110.6,2.5708917 C110.6,2.86753305 110.6,3.06529395 110.5,3.3619353 C110.4,3.5596962 110.3,3.85633755 110.1,3.955218 C110,4.1529789 109.8,4.25185935 109.6,4.3507398 C109.4,4.44962025 109.2,4.5485007 109,4.5485007 C108.8,4.5485007 108.7,4.5485007 108.6,4.44962025 C108.5,4.3507398 108.4,4.25185935 108.3,4.1529789 L108.3,4.1529789 L108.2,4.7462616 L108,5.7350661 L107.6,5.7350661 L107.6,5.63618565 Z M109.1,4.05409845 C109.2,4.05409845 109.4,4.05409845 109.5,3.955218 C109.6,3.85633755 109.8,3.7574571 109.9,3.65857665 C110,3.5596962 110.1,3.3619353 110.1,3.1641744 C110.1,2.9664135 110.2,2.7686526 110.2,2.5708917 C110.2,2.3731308 110.2,2.1753699 110.1,1.977609 C110,1.87872855 109.9,1.7798481 109.7,1.7798481 C109.6,1.7798481 109.4,1.7798481 109.3,1.87872855 C109.2,1.977609 109,2.07648945 108.8,2.27425035 L108.5,3.65857665 C108.6,3.7574571 108.7,3.955218 108.8,3.955218 C108.9,4.05409845 109,4.05409845 109.1,4.05409845 Z" id="Shape_00000183226412679478139550000016769038459752330675_"></path>
                    <path d="M112.2,4.44962025 C111.9,4.44962025 111.6,4.3507398 111.4,4.1529789 C111.2,3.955218 111.1,3.65857665 111.1,3.26305485 C111.1,2.9664135 111.1,2.7686526 111.2,2.47201125 C111.3,2.27425035 111.4,2.07648945 111.6,1.87872855 C111.8,1.68096765 111.9,1.5820872 112.1,1.48320675 C112.3,1.3843263 112.5,1.3843263 112.7,1.3843263 C113,1.3843263 113.3,1.48320675 113.5,1.68096765 C113.7,1.87872855 113.8,2.1753699 113.8,2.5708917 C113.8,2.86753305 113.8,3.06529395 113.7,3.3619353 C113.6,3.5596962 113.5,3.7574571 113.3,3.955218 C113.1,4.1529789 113,4.25185935 112.8,4.3507398 C112.6,4.44962025 112.4,4.44962025 112.2,4.44962025 Z M112.3,4.05409845 C112.5,4.05409845 112.7,3.955218 112.8,3.85633755 C113,3.7574571 113.1,3.5596962 113.2,3.3619353 C113.3,3.1641744 113.4,2.86753305 113.4,2.66977215 C113.4,2.3731308 113.3,2.1753699 113.2,2.07648945 C113.1,1.977609 112.9,1.87872855 112.7,1.87872855 C112.5,1.87872855 112.3,1.977609 112.2,2.07648945 C112,2.1753699 111.9,2.3731308 111.8,2.5708917 C111.7,2.7686526 111.6,3.06529395 111.6,3.26305485 C111.6,3.5596962 111.7,3.7574571 111.8,3.85633755 C111.9,3.955218 112.1,4.05409845 112.3,4.05409845 Z" id="Shape_00000049912560980319920780000005578043349116431807_"></path>
                    <path d="M114.2,4.3507398 L114.8,1.48320675 L115.2,1.48320675 L115.1,2.07648945 L115.1,2.07648945 C115.2,1.87872855 115.4,1.7798481 115.5,1.68096765 C115.7,1.5820872 115.8,1.48320675 116,1.48320675 C116.1,1.48320675 116.2,1.48320675 116.3,1.5820872 L116.1,1.977609 C116.1,1.977609 116,1.977609 116,1.977609 C116,1.977609 115.9,1.977609 115.9,1.977609 C115.8,1.977609 115.6,2.07648945 115.5,2.1753699 C115.3,2.27425035 115.2,2.47201125 115.1,2.66977215 L114.7,4.44962025 L114.2,4.44962025 L114.2,4.3507398 Z" id="Path_00000126299162915849038820000008078930763693227418_"></path>
                    <path d="M118,4.44962025 C117.7,4.44962025 117.6,4.3507398 117.6,4.05409845 C117.6,3.955218 117.6,3.85633755 117.6,3.85633755 L118.3,0.1977609 L118.8,0.1977609 L118,3.85633755 C118,3.85633755 118,3.955218 118,3.955218 C118,3.955218 118,3.955218 118,4.05409845 C118,4.1529789 118,4.1529789 118.1,4.1529789 C118.1,4.1529789 118.1,4.1529789 118.1,4.1529789 C118.1,4.1529789 118.1,4.1529789 118.2,4.1529789 L118.2,4.44962025 C118.2,4.44962025 118.1,4.44962025 118.1,4.44962025 C118.1,4.44962025 118,4.44962025 118,4.44962025 Z" id="Path_00000016040401348195581830000017988954636763515566_"></path>
                    <path d="M119.9,4.44962025 C119.6,4.44962025 119.4,4.3507398 119.3,4.1529789 C119.1,3.955218 119.1,3.7574571 119.1,3.3619353 C119.1,3.06529395 119.1,2.86753305 119.2,2.5708917 C119.3,2.3731308 119.4,2.07648945 119.6,1.977609 C119.7,1.7798481 119.9,1.68096765 120.1,1.5820872 C120.3,1.48320675 120.5,1.3843263 120.7,1.3843263 C120.9,1.3843263 121,1.3843263 121.1,1.48320675 C121.2,1.5820872 121.3,1.68096765 121.4,1.7798481 L121.4,1.7798481 L121.5,1.3843263 L121.9,1.3843263 L121.3,4.25185935 L120.9,4.25185935 L120.9,3.85633755 L120.9,3.85633755 C120.8,3.955218 120.6,4.1529789 120.4,4.25185935 C120.2,4.3507398 120,4.44962025 119.9,4.44962025 Z M120,4.05409845 C120.2,4.05409845 120.3,4.05409845 120.5,3.955218 C120.7,3.85633755 120.8,3.7574571 121,3.5596962 L121.3,2.27425035 C121.2,2.07648945 121.1,1.977609 121,1.977609 C120.9,1.977609 120.8,1.87872855 120.7,1.87872855 C120.6,1.87872855 120.4,1.87872855 120.3,1.977609 C120.2,2.07648945 120,2.1753699 119.9,2.27425035 C119.8,2.3731308 119.7,2.5708917 119.6,2.7686526 C119.5,2.9664135 119.5,3.1641744 119.5,3.3619353 C119.5,3.65857665 119.5,3.7574571 119.6,3.955218 C119.7,4.05409845 119.9,4.05409845 120,4.05409845 Z" id="Shape_00000039843687894258472680000003122692474733853367_"></path>
                    <path d="M123.2,5.63618565 L124,1.48320675 L124.4,1.48320675 L124.4,1.87872855 L124.4,1.87872855 C124.5,1.7798481 124.7,1.68096765 124.9,1.5820872 C125.1,1.48320675 125.2,1.48320675 125.4,1.48320675 C125.7,1.48320675 125.9,1.5820872 126,1.7798481 C126.2,1.977609 126.2,2.1753699 126.2,2.5708917 C126.2,2.86753305 126.2,3.06529395 126.1,3.3619353 C126,3.5596962 125.9,3.85633755 125.7,3.955218 C125.6,4.1529789 125.4,4.25185935 125.2,4.3507398 C125,4.44962025 124.8,4.5485007 124.6,4.5485007 C124.4,4.5485007 124.3,4.5485007 124.2,4.44962025 C124.1,4.3507398 124,4.25185935 123.9,4.1529789 L123.9,4.1529789 L123.8,4.7462616 L123.6,5.7350661 L123.2,5.7350661 L123.2,5.63618565 Z M124.6,4.05409845 C124.7,4.05409845 124.9,4.05409845 125,3.955218 C125.1,3.85633755 125.3,3.7574571 125.4,3.65857665 C125.5,3.5596962 125.6,3.3619353 125.6,3.1641744 C125.6,2.9664135 125.7,2.7686526 125.7,2.5708917 C125.7,2.3731308 125.7,2.1753699 125.6,1.977609 C125.5,1.87872855 125.4,1.7798481 125.2,1.7798481 C125.1,1.7798481 124.9,1.7798481 124.8,1.87872855 C124.7,1.977609 124.5,2.07648945 124.3,2.27425035 L124,3.65857665 C124.1,3.7574571 124.2,3.955218 124.3,3.955218 C124.4,4.05409845 124.5,4.05409845 124.6,4.05409845 Z" id="Shape_00000034060973394401606620000001434453826643196854_"></path>
                    <path d="M127.1,4.44962025 C126.8,4.44962025 126.7,4.3507398 126.7,4.05409845 C126.7,3.955218 126.7,3.85633755 126.7,3.85633755 L127.4,0.1977609 L127.9,0.1977609 L127.1,3.85633755 C127.1,3.85633755 127.1,3.955218 127.1,3.955218 C127.1,3.955218 127.1,3.955218 127.1,4.05409845 C127.1,4.1529789 127.1,4.1529789 127.2,4.1529789 C127.2,4.1529789 127.2,4.1529789 127.2,4.1529789 C127.2,4.1529789 127.2,4.1529789 127.3,4.1529789 L127.3,4.44962025 C127.3,4.44962025 127.2,4.44962025 127.2,4.44962025 C127.2,4.44962025 127.2,4.44962025 127.1,4.44962025 Z" id="Path_00000020395987434946300030000000149951511012097174_"></path>
                    <path d="M129.7,1.7798481 C129.6,1.7798481 129.4,1.7798481 129.3,1.87872855 C129.2,1.977609 129.1,2.07648945 128.9,2.1753699 C128.8,2.27425035 128.7,2.47201125 128.7,2.66977215 L130.2,2.66977215 C130.2,2.66977215 130.2,2.5708917 130.2,2.5708917 C130.2,2.5708917 130.2,2.47201125 130.2,2.47201125 C130.2,2.27425035 130.2,2.1753699 130.1,1.977609 C130,1.87872855 129.9,1.7798481 129.7,1.7798481 Z M129.3,4.44962025 C128.9,4.44962025 128.7,4.3507398 128.5,4.1529789 C128.3,3.955218 128.2,3.65857665 128.2,3.26305485 C128.2,2.9664135 128.2,2.7686526 128.3,2.5708917 C128.4,2.3731308 128.5,2.1753699 128.7,1.977609 C128.9,1.7798481 129,1.68096765 129.2,1.5820872 C129.4,1.48320675 129.6,1.48320675 129.8,1.48320675 C130,1.48320675 130.2,1.48320675 130.3,1.5820872 C130.4,1.68096765 130.5,1.7798481 130.6,1.977609 C130.7,2.1753699 130.7,2.27425035 130.7,2.47201125 C130.7,2.5708917 130.7,2.66977215 130.7,2.7686526 C130.7,2.86753305 130.7,2.9664135 130.6,3.06529395 L128.7,3.06529395 C128.7,3.06529395 128.7,3.06529395 128.7,3.1641744 C128.7,3.1641744 128.7,3.1641744 128.7,3.26305485 C128.7,3.46081575 128.7,3.65857665 128.8,3.85633755 C128.9,3.955218 129,4.05409845 129.1,4.1529789 C129.2,4.25185935 129.4,4.25185935 129.5,4.25185935 C129.6,4.25185935 129.7,4.25185935 129.9,4.1529789 C130,4.1529789 130.1,4.05409845 130.2,3.955218 L130.4,4.25185935 C130.3,4.3507398 130.1,4.44962025 130,4.44962025 C129.7,4.44962025 129.5,4.44962025 129.3,4.44962025 Z" id="Shape_00000103959697065322321770000014855797352773986745_"></path>
                    <path d="M131,4.3507398 L131.6,1.48320675 L132,1.48320675 L132,1.87872855 L132,1.87872855 C132.2,1.7798481 132.3,1.5820872 132.5,1.48320675 C132.7,1.3843263 132.8,1.3843263 133,1.3843263 C133.2,1.3843263 133.4,1.48320675 133.5,1.5820872 C133.6,1.68096765 133.7,1.87872855 133.7,2.07648945 C133.7,2.1753699 133.7,2.3731308 133.7,2.47201125 L133.3,4.3507398 L132.8,4.3507398 L133.2,2.5708917 C133.2,2.47201125 133.2,2.47201125 133.2,2.3731308 C133.2,2.3731308 133.2,2.27425035 133.2,2.1753699 C133.2,1.87872855 133.1,1.68096765 132.8,1.68096765 C132.7,1.68096765 132.6,1.68096765 132.4,1.7798481 C132.3,1.87872855 132.1,1.977609 131.9,2.1753699 L131.5,4.25185935 L131,4.25185935 L131,4.3507398 Z" id="Path_00000115492560536155803950000015145343423410187932_"></path>
                    <path d="M135.1,4.44962025 C134.8,4.44962025 134.6,4.3507398 134.5,4.1529789 C134.3,3.955218 134.3,3.7574571 134.3,3.3619353 C134.3,3.06529395 134.3,2.86753305 134.4,2.5708917 C134.5,2.27425035 134.6,2.07648945 134.8,1.977609 C134.9,1.7798481 135.1,1.68096765 135.3,1.5820872 C135.5,1.48320675 135.7,1.3843263 135.9,1.3843263 C136.1,1.3843263 136.2,1.3843263 136.3,1.48320675 C136.4,1.5820872 136.5,1.68096765 136.6,1.7798481 L136.6,1.7798481 L136.7,1.3843263 L137.1,1.3843263 L136.5,4.25185935 L136.1,4.25185935 L136.1,3.85633755 L136.1,3.85633755 C136,3.955218 135.8,4.1529789 135.6,4.25185935 C135.4,4.3507398 135.2,4.44962025 135.1,4.44962025 Z M135.2,4.05409845 C135.4,4.05409845 135.5,4.05409845 135.7,3.955218 C135.9,3.85633755 136,3.7574571 136.2,3.5596962 L136.5,2.27425035 C136.4,2.07648945 136.3,1.977609 136.2,1.977609 C136.1,1.87872855 136,1.87872855 135.9,1.87872855 C135.8,1.87872855 135.6,1.87872855 135.5,1.977609 C135.4,2.07648945 135.2,2.1753699 135.1,2.27425035 C135,2.3731308 134.9,2.5708917 134.8,2.7686526 C134.7,2.9664135 134.7,3.1641744 134.7,3.3619353 C134.7,3.65857665 134.7,3.7574571 134.8,3.955218 C134.9,4.05409845 135.1,4.05409845 135.2,4.05409845 Z" id="Shape_00000007403272091797213130000000045715017265753248_"></path>
                    <path d="M138.7,4.3507398 L139.2,1.7798481 L138.8,1.7798481 L138.9,1.48320675 L139.3,1.48320675 L139.4,0.988804501 C139.5,0.69216315 139.6,0.49440225 139.7,0.29664135 C139.9,0.0988804501 140.1,0.0988804501 140.3,0.0988804501 C140.4,0.0988804501 140.5,0.0988804501 140.6,0.0988804501 C140.7,0.0988804501 140.8,0.1977609 140.8,0.1977609 L140.6,0.49440225 C140.5,0.3955218 140.4,0.3955218 140.3,0.3955218 C140.2,0.3955218 140.1,0.49440225 140,0.5932827 C139.9,0.69216315 139.9,0.791043601 139.8,0.988804501 L139.7,1.48320675 L140.3,1.48320675 L140.2,1.87872855 L139.6,1.87872855 L139.1,4.44962025 L138.7,4.44962025 L138.7,4.3507398 Z" id="Path_00000118359414996914771100000002487302914982250380_"></path>
                    <path d="M141.8,1.7798481 C141.7,1.7798481 141.5,1.7798481 141.4,1.87872855 C141.3,1.977609 141.2,2.07648945 141,2.1753699 C140.9,2.27425035 140.8,2.47201125 140.8,2.66977215 L142.3,2.66977215 C142.3,2.66977215 142.3,2.5708917 142.3,2.5708917 C142.3,2.5708917 142.3,2.47201125 142.3,2.47201125 C142.3,2.27425035 142.3,2.1753699 142.2,1.977609 C142.1,1.87872855 142,1.7798481 141.8,1.7798481 Z M141.4,4.44962025 C141,4.44962025 140.8,4.3507398 140.6,4.1529789 C140.4,3.955218 140.3,3.65857665 140.3,3.26305485 C140.3,2.9664135 140.3,2.7686526 140.4,2.5708917 C140.5,2.3731308 140.6,2.1753699 140.8,1.977609 C141,1.7798481 141.1,1.68096765 141.3,1.5820872 C141.5,1.48320675 141.7,1.48320675 141.9,1.48320675 C142.1,1.48320675 142.3,1.48320675 142.4,1.5820872 C142.5,1.68096765 142.6,1.7798481 142.7,1.977609 C142.8,2.1753699 142.8,2.27425035 142.8,2.47201125 C142.8,2.5708917 142.8,2.66977215 142.8,2.7686526 C142.8,2.86753305 142.8,2.9664135 142.7,3.06529395 L140.8,3.06529395 C140.8,3.06529395 140.8,3.06529395 140.8,3.1641744 C140.8,3.1641744 140.8,3.1641744 140.8,3.26305485 C140.8,3.46081575 140.8,3.65857665 140.9,3.85633755 C141,3.955218 141.1,4.05409845 141.2,4.1529789 C141.3,4.25185935 141.5,4.25185935 141.6,4.25185935 C141.7,4.25185935 141.8,4.25185935 142,4.1529789 C142.1,4.1529789 142.2,4.05409845 142.3,3.955218 L142.5,4.25185935 C142.4,4.3507398 142.2,4.44962025 142.1,4.44962025 C141.8,4.44962025 141.6,4.44962025 141.4,4.44962025 Z" id="Shape_00000155850486619947945610000003988153426629468297_"></path>
                    <path d="M144.1,5.63618565 C144,5.63618565 144,5.63618565 143.9,5.63618565 C143.8,5.63618565 143.8,5.63618565 143.7,5.5373052 L143.8,5.24066385 C143.9,5.24066385 143.9,5.24066385 144,5.24066385 C144.1,5.24066385 144.3,5.1417834 144.4,5.04290295 C144.5,4.9440225 144.6,4.7462616 144.7,4.5485007 L144.8,4.3507398 L144.3,1.3843263 L144.8,1.3843263 L145,2.9664135 C145,3.06529395 145,3.26305485 145.1,3.3619353 C145.1,3.5596962 145.1,3.65857665 145.1,3.7574571 L145.1,3.7574571 C145.2,3.65857665 145.2,3.46081575 145.3,3.3619353 C145.4,3.26305485 145.4,3.06529395 145.5,2.9664135 L146.3,1.3843263 L146.8,1.3843263 L145.1,4.44962025 C144.9,4.7462616 144.7,5.04290295 144.5,5.24066385 C144.3,5.43842475 144.4,5.63618565 144.1,5.63618565 Z" id="Path_00000166637733281851625850000011347916749871751299_"></path>
                    <path d="M149.3,4.44962025 C149,4.44962025 148.7,4.3507398 148.5,4.1529789 C148.3,3.955218 148.2,3.65857665 148.2,3.26305485 C148.2,2.9664135 148.2,2.7686526 148.3,2.47201125 C148.4,2.27425035 148.5,2.07648945 148.7,1.87872855 C148.9,1.68096765 149,1.5820872 149.2,1.48320675 C149.4,1.3843263 149.6,1.3843263 149.8,1.3843263 C150,1.3843263 150.1,1.3843263 150.3,1.48320675 C150.4,1.5820872 150.5,1.68096765 150.6,1.7798481 L150.3,2.07648945 C150.2,1.977609 150.2,1.977609 150.1,1.87872855 C150,1.87872855 149.9,1.7798481 149.8,1.7798481 C149.7,1.7798481 149.5,1.7798481 149.4,1.87872855 C149.3,1.977609 149.1,2.07648945 149,2.1753699 C148.9,2.27425035 148.8,2.47201125 148.7,2.66977215 C148.6,2.86753305 148.6,3.06529395 148.6,3.26305485 C148.6,3.5596962 148.7,3.7574571 148.8,3.85633755 C148.9,3.955218 149.1,4.05409845 149.3,4.05409845 C149.4,4.05409845 149.5,4.05409845 149.7,3.955218 C149.8,3.85633755 149.9,3.85633755 150,3.7574571 L150.2,4.05409845 C150.1,4.1529789 150,4.25185935 149.8,4.3507398 C149.7,4.44962025 149.6,4.44962025 149.3,4.44962025 Z" id="Path_00000010279779397819486650000014089104920955529898_"></path>
                    <path d="M150.9,4.3507398 L151.5,1.48320675 L151.9,1.48320675 L151.8,2.07648945 L151.8,2.07648945 C151.9,1.87872855 152.1,1.7798481 152.2,1.68096765 C152.4,1.5820872 152.5,1.48320675 152.7,1.48320675 C152.8,1.48320675 152.9,1.48320675 153,1.5820872 L152.8,1.977609 C152.8,1.977609 152.7,1.977609 152.7,1.977609 C152.7,1.977609 152.6,1.977609 152.6,1.977609 C152.5,1.977609 152.3,2.07648945 152.2,2.1753699 C152,2.27425035 151.9,2.47201125 151.8,2.66977215 L151.4,4.44962025 L150.9,4.44962025 L150.9,4.3507398 Z" id="Path_00000075850260314066140200000011012937998457295293_"></path>
                    <path d="M154.4,1.7798481 C154.3,1.7798481 154.1,1.7798481 154,1.87872855 C153.9,1.977609 153.8,2.07648945 153.6,2.1753699 C153.5,2.27425035 153.4,2.47201125 153.4,2.66977215 L154.9,2.66977215 C154.9,2.66977215 154.9,2.5708917 154.9,2.5708917 C154.9,2.5708917 154.9,2.47201125 154.9,2.47201125 C154.9,2.27425035 154.9,2.1753699 154.8,1.977609 C154.8,1.87872855 154.6,1.7798481 154.4,1.7798481 Z M154.1,4.44962025 C153.7,4.44962025 153.5,4.3507398 153.3,4.1529789 C153.1,3.955218 153,3.65857665 153,3.26305485 C153,2.9664135 153,2.7686526 153.1,2.5708917 C153.2,2.3731308 153.3,2.1753699 153.5,1.977609 C153.7,1.7798481 153.8,1.68096765 154,1.5820872 C154.2,1.48320675 154.4,1.48320675 154.6,1.48320675 C154.8,1.48320675 155,1.48320675 155.1,1.5820872 C155.2,1.68096765 155.3,1.7798481 155.4,1.977609 C155.5,2.1753699 155.5,2.27425035 155.5,2.47201125 C155.5,2.5708917 155.5,2.66977215 155.5,2.7686526 C155.5,2.86753305 155.5,2.9664135 155.4,3.06529395 L153.5,3.06529395 C153.5,3.06529395 153.5,3.06529395 153.5,3.1641744 C153.5,3.1641744 153.5,3.1641744 153.5,3.26305485 C153.5,3.46081575 153.5,3.65857665 153.6,3.85633755 C153.7,3.955218 153.8,4.05409845 153.9,4.1529789 C154,4.25185935 154.2,4.25185935 154.3,4.25185935 C154.4,4.25185935 154.5,4.25185935 154.7,4.1529789 C154.8,4.1529789 154.9,4.05409845 155,3.955218 L155.2,4.25185935 C155.1,4.3507398 154.9,4.44962025 154.8,4.44962025 C154.4,4.44962025 154.2,4.44962025 154.1,4.44962025 Z M154,0.988804501 L154.9,0 L155.4,0 L155.4,0.0988804501 L154.3,0.988804501 L154,0.988804501 Z" id="Shape_00000160882270060751399510000013624273770900713146_"></path>
                    <path d="M156.6,4.44962025 C156.3,4.44962025 156.1,4.3507398 156,4.1529789 C155.8,3.955218 155.8,3.7574571 155.8,3.3619353 C155.8,3.06529395 155.8,2.86753305 155.9,2.5708917 C156,2.27425035 156.1,2.07648945 156.3,1.977609 C156.4,1.7798481 156.6,1.68096765 156.8,1.5820872 C157,1.48320675 157.2,1.3843263 157.4,1.3843263 C157.6,1.3843263 157.7,1.3843263 157.8,1.48320675 C157.9,1.5820872 158,1.68096765 158.1,1.7798481 L158.1,1.7798481 L158.2,1.1865654 L158.4,0.0988804501 L158.9,0.0988804501 L158,4.3507398 L157.6,4.3507398 L157.6,3.955218 L157.6,3.955218 C157.5,4.05409845 157.3,4.25185935 157.1,4.3507398 C157,4.3507398 156.8,4.44962025 156.6,4.44962025 Z M156.8,4.05409845 C157,4.05409845 157.1,4.05409845 157.3,3.955218 C157.5,3.85633755 157.6,3.7574571 157.8,3.5596962 L158.1,2.27425035 C158,2.07648945 157.9,1.977609 157.8,1.977609 C157.7,1.87872855 157.6,1.87872855 157.5,1.87872855 C157.4,1.87872855 157.2,1.87872855 157.1,1.977609 C157,2.07648945 156.8,2.1753699 156.7,2.27425035 C156.6,2.3731308 156.5,2.5708917 156.4,2.7686526 C156.3,2.9664135 156.3,3.1641744 156.3,3.3619353 C156.3,3.65857665 156.3,3.7574571 156.4,3.955218 C156.5,4.05409845 156.6,4.05409845 156.8,4.05409845 Z" id="Shape_00000052813057690492380140000006351521245719209135_"></path>
                    <path d="M159,4.3507398 L159.6,1.48320675 L160.1,1.48320675 L159.5,4.3507398 L159,4.3507398 Z M159.9,0.889924051 C159.8,0.889924051 159.8,0.889924051 159.7,0.791043601 C159.6,0.791043601 159.6,0.69216315 159.6,0.5932827 C159.6,0.49440225 159.6,0.3955218 159.7,0.3955218 C159.8,0.3955218 159.9,0.29664135 159.9,0.29664135 C160,0.29664135 160,0.29664135 160.1,0.3955218 C160.2,0.3955218 160.2,0.49440225 160.2,0.5932827 C160.2,0.69216315 160.2,0.791043601 160.1,0.791043601 C160,0.791043601 160,0.889924051 159.9,0.889924051 Z" id="Shape_00000079446474065042126430000014982886555933721780_"></path>
                    <path d="M161.3,4.44962025 C161.1,4.44962025 160.9,4.3507398 160.8,4.25185935 C160.7,4.1529789 160.6,3.955218 160.6,3.7574571 C160.6,3.65857665 160.6,3.65857665 160.6,3.5596962 C160.6,3.46081575 160.6,3.46081575 160.6,3.3619353 L160.9,1.7798481 L160.5,1.7798481 L160.6,1.48320675 L161.1,1.48320675 L161.3,0.5932827 L161.7,0.5932827 L161.5,1.48320675 L162.2,1.48320675 L162.1,1.87872855 L161.3,1.87872855 L161,3.5596962 C161,3.65857665 161,3.65857665 161,3.7574571 C161,3.85633755 161,3.955218 161.1,4.05409845 C161.2,4.1529789 161.2,4.1529789 161.4,4.1529789 C161.5,4.1529789 161.6,4.1529789 161.7,4.05409845 L161.8,4.3507398 C161.7,4.3507398 161.7,4.44962025 161.6,4.44962025 C161.5,4.44962025 161.4,4.44962025 161.3,4.44962025 Z" id="Path_00000155127687794920611960000006947966792658977717_"></path>
                    <path d="M163.4,4.44962025 C163.1,4.44962025 162.8,4.3507398 162.6,4.1529789 C162.4,3.955218 162.3,3.65857665 162.3,3.26305485 C162.3,2.9664135 162.3,2.7686526 162.4,2.47201125 C162.5,2.27425035 162.6,2.07648945 162.8,1.87872855 C163,1.68096765 163.1,1.5820872 163.3,1.48320675 C163.5,1.3843263 163.7,1.3843263 163.9,1.3843263 C164.2,1.3843263 164.5,1.48320675 164.7,1.68096765 C164.9,1.87872855 165,2.1753699 165,2.5708917 C165,2.86753305 165,3.06529395 164.9,3.3619353 C164.8,3.5596962 164.7,3.7574571 164.5,3.955218 C164.3,4.1529789 164.2,4.25185935 164,4.3507398 C163.8,4.44962025 163.6,4.44962025 163.4,4.44962025 Z M163.4,4.05409845 C163.6,4.05409845 163.8,3.955218 163.9,3.85633755 C164.1,3.7574571 164.2,3.5596962 164.3,3.3619353 C164.4,3.1641744 164.5,2.86753305 164.5,2.66977215 C164.5,2.3731308 164.4,2.1753699 164.3,2.07648945 C164.2,1.977609 164,1.87872855 163.8,1.87872855 C163.6,1.87872855 163.4,1.977609 163.3,2.07648945 C163.1,2.1753699 163,2.3731308 162.9,2.5708917 C162.8,2.7686526 162.7,3.06529395 162.7,3.26305485 C162.7,3.5596962 162.8,3.7574571 162.9,3.85633755 C163.1,3.955218 163.2,4.05409845 163.4,4.05409845 Z" id="Shape_00000168825038185749297840000003898090653620506017_"></path>
                    <path d="M167.5,4.44962025 C167.2,4.44962025 167,4.3507398 166.9,4.1529789 C166.7,3.955218 166.7,3.7574571 166.7,3.3619353 C166.7,3.06529395 166.7,2.86753305 166.8,2.5708917 C166.9,2.3731308 167,2.07648945 167.2,1.977609 C167.3,1.7798481 167.5,1.68096765 167.7,1.5820872 C167.9,1.48320675 168.1,1.3843263 168.3,1.3843263 C168.5,1.3843263 168.6,1.3843263 168.7,1.48320675 C168.8,1.5820872 168.9,1.68096765 169,1.7798481 L169,1.7798481 L169.1,1.1865654 L169.3,0.0988804501 L169.8,0.0988804501 L168.9,4.3507398 L168.5,4.3507398 L168.5,3.955218 L168.5,3.955218 C168.4,4.05409845 168.2,4.25185935 168,4.3507398 C167.8,4.3507398 167.7,4.44962025 167.5,4.44962025 Z M167.6,4.05409845 C167.8,4.05409845 167.9,4.05409845 168.1,3.955218 C168.3,3.85633755 168.4,3.7574571 168.6,3.5596962 L168.9,2.27425035 C168.8,2.07648945 168.7,1.977609 168.6,1.977609 C168.5,1.87872855 168.4,1.87872855 168.3,1.87872855 C168.2,1.87872855 168,1.87872855 167.9,1.977609 C167.8,2.07648945 167.6,2.1753699 167.5,2.27425035 C167.4,2.3731308 167.3,2.5708917 167.2,2.7686526 C167.1,2.9664135 167.1,3.1641744 167.1,3.3619353 C167.1,3.65857665 167.1,3.7574571 167.2,3.955218 C167.3,4.05409845 167.5,4.05409845 167.6,4.05409845 Z" id="Shape_00000097495678353289614570000014654488069521890480_"></path>
                    <path d="M171.3,1.7798481 C171.2,1.7798481 171,1.7798481 170.9,1.87872855 C170.8,1.977609 170.7,2.07648945 170.5,2.1753699 C170.4,2.27425035 170.3,2.47201125 170.3,2.66977215 L171.8,2.66977215 C171.8,2.66977215 171.8,2.5708917 171.8,2.5708917 C171.8,2.5708917 171.8,2.47201125 171.8,2.47201125 C171.8,2.27425035 171.8,2.1753699 171.7,1.977609 C171.7,1.87872855 171.6,1.7798481 171.3,1.7798481 Z M171,4.44962025 C170.6,4.44962025 170.4,4.3507398 170.2,4.1529789 C170,3.955218 169.9,3.65857665 169.9,3.26305485 C169.9,2.9664135 169.9,2.7686526 170,2.5708917 C170.1,2.3731308 170.2,2.1753699 170.4,1.977609 C170.6,1.7798481 170.7,1.68096765 170.9,1.5820872 C171.1,1.48320675 171.3,1.48320675 171.5,1.48320675 C171.7,1.48320675 171.9,1.48320675 172,1.5820872 C172.1,1.68096765 172.2,1.7798481 172.3,1.977609 C172.4,2.1753699 172.4,2.27425035 172.4,2.47201125 C172.4,2.5708917 172.4,2.66977215 172.4,2.7686526 C172.4,2.86753305 172.4,2.9664135 172.3,3.06529395 L170.4,3.06529395 C170.4,3.06529395 170.4,3.06529395 170.4,3.1641744 C170.4,3.1641744 170.4,3.1641744 170.4,3.26305485 C170.4,3.46081575 170.4,3.65857665 170.5,3.85633755 C170.6,3.955218 170.7,4.05409845 170.8,4.1529789 C170.9,4.25185935 171.1,4.25185935 171.2,4.25185935 C171.3,4.25185935 171.4,4.25185935 171.6,4.1529789 C171.7,4.1529789 171.8,4.05409845 171.9,3.955218 L172.1,4.25185935 C172,4.3507398 171.8,4.44962025 171.7,4.44962025 C171.4,4.44962025 171.2,4.44962025 171,4.44962025 Z" id="Shape_00000112592395565204616180000011555152403153842866_"></path>
                    <path d="M173.2,4.44962025 C172.9,4.44962025 172.8,4.3507398 172.8,4.05409845 C172.8,3.955218 172.8,3.85633755 172.8,3.85633755 L173.5,0.1977609 L174,0.1977609 L173.2,3.85633755 C173.2,3.85633755 173.2,3.955218 173.2,3.955218 C173.2,3.955218 173.2,3.955218 173.2,4.05409845 C173.2,4.1529789 173.2,4.1529789 173.3,4.1529789 C173.3,4.1529789 173.3,4.1529789 173.3,4.1529789 C173.3,4.1529789 173.3,4.1529789 173.4,4.1529789 L173.4,4.44962025 C173.4,4.44962025 173.3,4.44962025 173.3,4.44962025 C173.3,4.44962025 173.2,4.44962025 173.2,4.44962025 Z" id="Path_00000102539176789882343360000003912978263472955802_"></path>
                    <path d="M176.2,5.63618565 C176,5.63618565 175.8,5.63618565 175.7,5.5373052 C175.5,5.43842475 175.4,5.3395443 175.2,5.24066385 L175.4,4.9440225 C175.5,5.04290295 175.6,5.1417834 175.8,5.1417834 C176,5.1417834 176.1,5.24066385 176.2,5.24066385 C176.4,5.24066385 176.6,5.1417834 176.8,5.04290295 C176.9,4.84514205 177.1,4.64738115 177.1,4.44962025 L177.3,3.85633755 C177.1,4.05409845 177,4.1529789 176.8,4.25185935 C176.6,4.3507398 176.5,4.3507398 176.3,4.3507398 C176.1,4.3507398 175.9,4.25185935 175.7,4.05409845 C175.5,3.85633755 175.5,3.65857665 175.5,3.26305485 C175.5,2.9664135 175.5,2.7686526 175.6,2.47201125 C175.7,2.27425035 175.8,2.07648945 175.9,1.87872855 C176,1.68096765 176.2,1.5820872 176.4,1.48320675 C176.6,1.3843263 176.8,1.28544585 177,1.28544585 C177.2,1.28544585 177.3,1.28544585 177.4,1.3843263 C177.5,1.48320675 177.6,1.5820872 177.7,1.68096765 L177.7,1.68096765 L177.8,1.28544585 L178.2,1.28544585 L177.6,4.3507398 C177.5,4.7462616 177.4,5.04290295 177.1,5.24066385 C176.9,5.5373052 176.6,5.63618565 176.2,5.63618565 Z M176.4,3.955218 C176.5,3.955218 176.7,3.955218 176.9,3.85633755 C177.1,3.7574571 177.2,3.65857665 177.3,3.46081575 L177.6,2.1753699 C177.5,1.977609 177.4,1.87872855 177.3,1.87872855 C177.2,1.87872855 177.1,1.7798481 177,1.7798481 C176.9,1.7798481 176.7,1.7798481 176.6,1.87872855 C176.5,1.977609 176.4,2.07648945 176.3,2.1753699 C176.2,2.27425035 176.1,2.47201125 176.1,2.66977215 C176,2.86753305 176,3.06529395 176,3.26305485 C176,3.46081575 176,3.65857665 176.1,3.7574571 C176.1,3.85633755 176.3,3.955218 176.4,3.955218 Z" id="Shape_00000049211627987826203250000003670820302157384582_"></path>
                    <path d="M179.7,4.44962025 C179.4,4.44962025 179.1,4.3507398 178.9,4.1529789 C178.7,3.955218 178.6,3.65857665 178.6,3.26305485 C178.6,2.9664135 178.6,2.7686526 178.7,2.47201125 C178.8,2.27425035 178.9,2.07648945 179.1,1.87872855 C179.3,1.68096765 179.4,1.5820872 179.6,1.48320675 C179.8,1.3843263 180,1.3843263 180.2,1.3843263 C180.5,1.3843263 180.8,1.48320675 181,1.68096765 C181.2,1.87872855 181.3,2.1753699 181.3,2.5708917 C181.3,2.86753305 181.3,3.06529395 181.2,3.3619353 C181.1,3.5596962 181,3.7574571 180.8,3.955218 C180.6,4.1529789 180.5,4.25185935 180.3,4.3507398 C180.1,4.44962025 179.9,4.44962025 179.7,4.44962025 Z M179.7,4.05409845 C179.9,4.05409845 180.1,3.955218 180.2,3.85633755 C180.4,3.7574571 180.5,3.5596962 180.6,3.3619353 C180.7,3.1641744 180.8,2.86753305 180.8,2.66977215 C180.8,2.3731308 180.7,2.1753699 180.6,2.07648945 C180.5,1.977609 180.3,1.87872855 180.1,1.87872855 C179.9,1.87872855 179.7,1.977609 179.6,2.07648945 C179.4,2.1753699 179.3,2.3731308 179.2,2.5708917 C179.1,2.7686526 179,3.06529395 179,3.26305485 C179,3.5596962 179.1,3.7574571 179.2,3.85633755 C179.4,3.955218 179.5,4.05409845 179.7,4.05409845 Z" id="Shape_00000042700944182159757460000001527130547848280221_"></path>
                    <path d="M182.9,4.44962025 C182.7,4.44962025 182.6,4.44962025 182.5,4.3507398 C182.4,4.25185935 182.3,4.1529789 182.2,4.05409845 L182.2,4.05409845 L182.1,4.44962025 L181.7,4.44962025 L182.6,0.1977609 L183.1,0.1977609 L182.9,1.28544585 L182.8,1.87872855 L182.8,1.87872855 C182.9,1.7798481 183.1,1.68096765 183.3,1.5820872 C183.5,1.48320675 183.6,1.48320675 183.8,1.48320675 C184.1,1.48320675 184.3,1.5820872 184.4,1.7798481 C184.5,1.977609 184.6,2.1753699 184.6,2.5708917 C184.6,2.86753305 184.6,3.06529395 184.5,3.3619353 C184.4,3.5596962 184.3,3.85633755 184.1,3.955218 C184,4.1529789 183.8,4.25185935 183.6,4.3507398 C183.3,4.3507398 183.1,4.44962025 182.9,4.44962025 Z M182.9,4.05409845 C183,4.05409845 183.2,4.05409845 183.3,3.955218 C183.4,3.85633755 183.6,3.7574571 183.7,3.65857665 C183.8,3.5596962 183.9,3.3619353 183.9,3.1641744 C183.9,2.9664135 184,2.7686526 184,2.5708917 C184,2.3731308 184,2.1753699 183.9,1.977609 C183.8,1.87872855 183.7,1.7798481 183.5,1.7798481 C183.4,1.7798481 183.2,1.7798481 183.1,1.87872855 C183,1.977609 182.8,2.07648945 182.6,2.1753699 L182.3,3.5596962 C182.4,3.7574571 182.5,3.85633755 182.6,3.85633755 C182.7,4.05409845 182.8,4.05409845 182.9,4.05409845 Z" id="Shape_00000101797445738820435760000002998616555001694616_"></path>
                    <path d="M184.9,4.3507398 L185.5,1.48320675 L186,1.48320675 L185.4,4.3507398 L184.9,4.3507398 Z M185.9,0.889924051 C185.8,0.889924051 185.8,0.889924051 185.7,0.791043601 C185.6,0.791043601 185.6,0.69216315 185.6,0.5932827 C185.6,0.49440225 185.6,0.3955218 185.7,0.3955218 C185.8,0.29664135 185.9,0.29664135 185.9,0.29664135 C186,0.29664135 186,0.29664135 186.1,0.3955218 C186.2,0.3955218 186.2,0.49440225 186.2,0.5932827 C186.2,0.69216315 186.2,0.791043601 186.1,0.791043601 C186,0.889924051 186,0.889924051 185.9,0.889924051 Z" id="Shape_00000135676323338999335430000005618038238974669995_"></path>
                    <path d="M187.9,1.7798481 C187.8,1.7798481 187.6,1.7798481 187.5,1.87872855 C187.4,1.977609 187.3,2.07648945 187.1,2.1753699 C187,2.27425035 186.9,2.47201125 186.9,2.66977215 L188.4,2.66977215 C188.4,2.66977215 188.4,2.5708917 188.4,2.5708917 C188.4,2.5708917 188.4,2.47201125 188.4,2.47201125 C188.4,2.27425035 188.4,2.1753699 188.3,1.977609 C188.2,1.87872855 188.1,1.7798481 187.9,1.7798481 Z M187.5,4.44962025 C187.1,4.44962025 186.9,4.3507398 186.7,4.1529789 C186.5,3.955218 186.4,3.65857665 186.4,3.26305485 C186.4,2.9664135 186.4,2.7686526 186.5,2.5708917 C186.6,2.3731308 186.7,2.1753699 186.9,1.977609 C187.1,1.7798481 187.2,1.68096765 187.4,1.5820872 C187.6,1.48320675 187.8,1.48320675 188,1.48320675 C188.2,1.48320675 188.4,1.48320675 188.5,1.5820872 C188.6,1.68096765 188.7,1.7798481 188.8,1.977609 C188.9,2.1753699 188.9,2.27425035 188.9,2.47201125 C188.9,2.5708917 188.9,2.66977215 188.9,2.7686526 C188.9,2.86753305 188.9,2.9664135 188.8,3.06529395 L186.9,3.06529395 C186.9,3.06529395 186.9,3.06529395 186.9,3.1641744 C186.9,3.1641744 186.9,3.1641744 186.9,3.26305485 C186.9,3.46081575 186.9,3.65857665 187,3.85633755 C187.1,3.955218 187.2,4.05409845 187.3,4.1529789 C187.4,4.25185935 187.6,4.25185935 187.7,4.25185935 C187.8,4.25185935 187.9,4.25185935 188.1,4.1529789 C188.2,4.1529789 188.3,4.05409845 188.4,3.955218 L188.6,4.25185935 C188.5,4.3507398 188.3,4.44962025 188.2,4.44962025 C187.9,4.44962025 187.7,4.44962025 187.5,4.44962025 Z" id="Shape_00000137116386638666601460000005479156393791841191_"></path>
                    <path d="M189.2,4.3507398 L189.8,1.48320675 L190.2,1.48320675 L190.1,2.07648945 L190.1,2.07648945 C190.2,1.87872855 190.4,1.7798481 190.5,1.68096765 C190.7,1.5820872 190.8,1.48320675 191,1.48320675 C191.1,1.48320675 191.2,1.48320675 191.3,1.5820872 L191.1,1.977609 C191.1,1.977609 191,1.977609 191,1.977609 C191,1.977609 190.9,1.977609 190.9,1.977609 C190.8,1.977609 190.6,2.07648945 190.5,2.1753699 C190.3,2.27425035 190.2,2.47201125 190.1,2.66977215 L189.7,4.44962025 L189.2,4.44962025 L189.2,4.3507398 Z" id="Path_00000142153221386381863530000000392280010069773209_"></path>
                    <path d="M191.3,4.3507398 L191.9,1.48320675 L192.3,1.48320675 L192.3,1.87872855 L192.3,1.87872855 C192.5,1.7798481 192.6,1.5820872 192.8,1.48320675 C193,1.3843263 193.1,1.3843263 193.3,1.3843263 C193.5,1.3843263 193.7,1.48320675 193.8,1.5820872 C193.9,1.68096765 194,1.87872855 194,2.07648945 C194,2.1753699 194,2.3731308 194,2.47201125 L193.6,4.3507398 L193.1,4.3507398 L193.5,2.5708917 C193.5,2.47201125 193.5,2.47201125 193.5,2.3731308 C193.5,2.3731308 193.5,2.27425035 193.5,2.1753699 C193.5,1.87872855 193.4,1.68096765 193.1,1.68096765 C193,1.68096765 192.9,1.68096765 192.7,1.7798481 C192.6,1.87872855 192.4,1.977609 192.2,2.1753699 L191.8,4.25185935 L191.3,4.25185935 L191.3,4.3507398 Z" id="Path_00000099645624796702621850000011633245825559744419_"></path>
                    <path d="M195.5,4.44962025 C195.2,4.44962025 194.9,4.3507398 194.7,4.1529789 C194.5,3.955218 194.4,3.65857665 194.4,3.26305485 C194.4,2.9664135 194.4,2.7686526 194.5,2.47201125 C194.6,2.27425035 194.7,2.07648945 194.9,1.87872855 C195.1,1.68096765 195.2,1.5820872 195.4,1.48320675 C195.6,1.3843263 195.8,1.3843263 196,1.3843263 C196.3,1.3843263 196.6,1.48320675 196.8,1.68096765 C197,1.87872855 197.1,2.1753699 197.1,2.5708917 C197.1,2.86753305 197.1,3.06529395 197,3.3619353 C196.9,3.5596962 196.8,3.7574571 196.6,3.955218 C196.4,4.1529789 196.3,4.25185935 196.1,4.3507398 C195.9,4.44962025 195.7,4.44962025 195.5,4.44962025 Z M195.6,4.05409845 C195.8,4.05409845 196,3.955218 196.1,3.85633755 C196.3,3.7574571 196.4,3.5596962 196.5,3.3619353 C196.6,3.1641744 196.7,2.86753305 196.7,2.66977215 C196.7,2.3731308 196.6,2.1753699 196.5,2.07648945 C196.4,1.977609 196.2,1.87872855 196,1.87872855 C195.8,1.87872855 195.6,1.977609 195.5,2.07648945 C195.3,2.1753699 195.2,2.3731308 195.1,2.5708917 C195,2.7686526 194.9,3.06529395 194.9,3.26305485 C194.9,3.5596962 195,3.7574571 195.1,3.85633755 C195.2,3.955218 195.4,4.05409845 195.6,4.05409845 Z" id="Shape_00000003798294447097172010000001402308008828330115_"></path>
                    <path d="M199.6,4.44962025 C199.3,4.44962025 199.1,4.3507398 199,4.1529789 C198.8,3.955218 198.8,3.7574571 198.8,3.3619353 C198.8,3.06529395 198.8,2.86753305 198.9,2.5708917 C199,2.27425035 199.1,2.07648945 199.3,1.977609 C199.4,1.7798481 199.6,1.68096765 199.8,1.5820872 C200,1.48320675 200.2,1.3843263 200.4,1.3843263 C200.6,1.3843263 200.7,1.3843263 200.8,1.48320675 C200.9,1.5820872 201,1.68096765 201.1,1.7798481 L201.1,1.7798481 L201.2,1.1865654 L201.4,0.0988804501 L201.9,0.0988804501 L201,4.3507398 L200.6,4.3507398 L200.6,3.955218 L200.6,3.955218 C200.5,4.05409845 200.3,4.25185935 200.1,4.3507398 C200,4.3507398 199.8,4.44962025 199.6,4.44962025 Z M199.8,4.05409845 C200,4.05409845 200.1,4.05409845 200.3,3.955218 C200.5,3.85633755 200.6,3.7574571 200.8,3.5596962 L201.1,2.27425035 C201,2.07648945 200.9,1.977609 200.8,1.977609 C200.7,1.87872855 200.6,1.87872855 200.5,1.87872855 C200.4,1.87872855 200.2,1.87872855 200.1,1.977609 C200,2.07648945 199.8,2.1753699 199.7,2.27425035 C199.6,2.3731308 199.5,2.5708917 199.4,2.7686526 C199.3,2.9664135 199.3,3.1641744 199.3,3.3619353 C199.3,3.65857665 199.3,3.7574571 199.4,3.955218 C199.5,4.05409845 199.6,4.05409845 199.8,4.05409845 Z" id="Shape_00000007425498090832339050000012086945601511833229_"></path>
                    <path d="M203.5,1.7798481 C203.4,1.7798481 203.2,1.7798481 203.1,1.87872855 C203,1.977609 202.9,2.07648945 202.7,2.1753699 C202.6,2.27425035 202.5,2.47201125 202.5,2.66977215 L204,2.66977215 C204,2.66977215 204,2.5708917 204,2.5708917 C204,2.5708917 204,2.47201125 204,2.47201125 C204,2.27425035 204,2.1753699 203.9,1.977609 C203.9,1.87872855 203.7,1.7798481 203.5,1.7798481 Z M203.2,4.44962025 C202.8,4.44962025 202.6,4.3507398 202.4,4.1529789 C202.2,3.955218 202.1,3.65857665 202.1,3.26305485 C202.1,2.9664135 202.1,2.7686526 202.2,2.5708917 C202.3,2.3731308 202.4,2.1753699 202.6,1.977609 C202.8,1.7798481 202.9,1.68096765 203.1,1.5820872 C203.3,1.48320675 203.5,1.48320675 203.7,1.48320675 C203.9,1.48320675 204.1,1.48320675 204.2,1.5820872 C204.3,1.68096765 204.4,1.7798481 204.5,1.977609 C204.6,2.1753699 204.6,2.27425035 204.6,2.47201125 C204.6,2.5708917 204.6,2.66977215 204.6,2.7686526 C204.6,2.86753305 204.6,2.9664135 204.5,3.06529395 L202.6,3.06529395 C202.6,3.06529395 202.6,3.06529395 202.6,3.1641744 C202.6,3.1641744 202.6,3.1641744 202.6,3.26305485 C202.6,3.46081575 202.6,3.65857665 202.7,3.85633755 C202.8,3.955218 202.9,4.05409845 203,4.1529789 C203.1,4.25185935 203.3,4.25185935 203.4,4.25185935 C203.5,4.25185935 203.6,4.25185935 203.8,4.1529789 C203.9,4.1529789 204,4.05409845 204.1,3.955218 L204.3,4.25185935 C204.2,4.3507398 204,4.44962025 203.9,4.44962025 C203.5,4.44962025 203.3,4.44962025 203.2,4.44962025 Z" id="Shape_00000111176101769327090650000002965304352599736202_"></path>
                    <path d="M206.5,4.44962025 C206.2,4.44962025 206.1,4.3507398 206.1,4.05409845 C206.1,3.955218 206.1,3.85633755 206.1,3.85633755 L206.8,0.1977609 L207.3,0.1977609 L206.5,3.85633755 C206.5,3.85633755 206.5,3.955218 206.5,3.955218 C206.5,3.955218 206.5,3.955218 206.5,4.05409845 C206.5,4.1529789 206.5,4.1529789 206.6,4.1529789 C206.6,4.1529789 206.6,4.1529789 206.6,4.1529789 C206.6,4.1529789 206.6,4.1529789 206.7,4.1529789 L206.7,4.44962025 C206.7,4.44962025 206.6,4.44962025 206.6,4.44962025 C206.6,4.44962025 206.6,4.44962025 206.5,4.44962025 Z" id="Path_00000045588558650861597490000000610328676047620233_"></path>
                    <path d="M208.6,4.44962025 C208.3,4.44962025 208,4.3507398 207.8,4.1529789 C207.6,3.955218 207.5,3.65857665 207.5,3.26305485 C207.5,2.9664135 207.5,2.7686526 207.6,2.47201125 C207.7,2.27425035 207.8,2.07648945 208,1.87872855 C208.2,1.68096765 208.3,1.5820872 208.5,1.48320675 C208.7,1.3843263 208.9,1.3843263 209.1,1.3843263 C209.4,1.3843263 209.7,1.48320675 209.9,1.68096765 C210.1,1.87872855 210.2,2.1753699 210.2,2.5708917 C210.2,2.86753305 210.2,3.06529395 210.1,3.3619353 C210,3.5596962 209.9,3.7574571 209.7,3.955218 C209.5,4.1529789 209.4,4.25185935 209.2,4.3507398 C209,4.44962025 208.8,4.44962025 208.6,4.44962025 Z M208.7,4.05409845 C208.9,4.05409845 209.1,3.955218 209.2,3.85633755 C209.4,3.7574571 209.5,3.5596962 209.6,3.3619353 C209.7,3.1641744 209.8,2.86753305 209.8,2.66977215 C209.8,2.3731308 209.7,2.1753699 209.6,2.07648945 C209.5,1.977609 209.3,1.87872855 209.1,1.87872855 C208.9,1.87872855 208.7,1.977609 208.6,2.07648945 C208.4,2.1753699 208.3,2.3731308 208.2,2.5708917 C208.1,2.7686526 208,3.06529395 208,3.26305485 C208,3.5596962 208.1,3.7574571 208.2,3.85633755 C208.3,3.955218 208.5,4.05409845 208.7,4.05409845 Z" id="Shape_00000156584021056547169030000005250391532573546664_"></path>
                    <path d="M211.4,4.44962025 C211.2,4.44962025 211,4.44962025 210.8,4.3507398 C210.6,4.25185935 210.5,4.1529789 210.4,3.955218 L210.7,3.7574571 C210.8,3.85633755 210.9,3.955218 211,4.05409845 C211.1,4.1529789 211.3,4.1529789 211.4,4.1529789 C211.6,4.1529789 211.7,4.1529789 211.8,4.05409845 C211.9,3.955218 212,3.85633755 212,3.7574571 C212,3.65857665 212,3.5596962 211.9,3.46081575 C211.8,3.3619353 211.7,3.26305485 211.4,3.1641744 C211.2,3.06529395 211.1,2.9664135 211,2.86753305 C210.9,2.7686526 210.8,2.5708917 210.8,2.47201125 C210.8,2.27425035 210.8,2.1753699 210.9,2.07648945 C211,1.977609 211.1,1.87872855 211.3,1.7798481 C211.4,1.68096765 211.6,1.68096765 211.8,1.68096765 C212,1.68096765 212.1,1.68096765 212.3,1.7798481 C212.4,1.87872855 212.6,1.977609 212.7,2.07648945 L212.5,2.27425035 C212.4,2.1753699 212.3,2.07648945 212.2,2.07648945 C212.1,1.977609 212,1.977609 211.8,1.977609 C211.6,1.977609 211.5,1.977609 211.4,2.07648945 C211.3,2.1753699 211.3,2.27425035 211.3,2.3731308 C211.3,2.47201125 211.3,2.5708917 211.4,2.66977215 C211.5,2.7686526 211.6,2.86753305 211.8,2.86753305 C212,2.9664135 212.2,3.1641744 212.3,3.26305485 C212.4,3.3619353 212.5,3.5596962 212.5,3.65857665 C212.5,3.85633755 212.5,3.955218 212.4,4.1529789 C212.3,4.25185935 212.2,4.3507398 212,4.44962025 C211.8,4.44962025 211.6,4.44962025 211.4,4.44962025 Z" id="Path_00000076581727423826634270000017004914675382350500_"></path>
                    <polygon id="Path_00000103957938544677175750000010881837848412838331_" points="214.3 4.3507398 215.1 0.49440225 217.2 0.49440225 217.2 0.889924051 215.5 0.889924051 215.2 2.07648945 216.7 2.07648945 216.6 2.47201125 215.1 2.47201125 214.8 3.955218 216.6 3.955218 216.5 4.3507398"></polygon>
                    <path d="M218.1,4.44962025 C217.9,4.44962025 217.7,4.44962025 217.5,4.3507398 C217.3,4.25185935 217.2,4.1529789 217.1,3.955218 L217.4,3.7574571 C217.5,3.85633755 217.6,3.955218 217.7,4.05409845 C217.8,4.1529789 218,4.1529789 218.1,4.1529789 C218.3,4.1529789 218.4,4.1529789 218.5,4.05409845 C218.6,3.955218 218.7,3.85633755 218.7,3.7574571 C218.7,3.65857665 218.7,3.5596962 218.6,3.46081575 C218.5,3.3619353 218.4,3.26305485 218.1,3.1641744 C217.9,3.06529395 217.8,2.9664135 217.7,2.86753305 C217.6,2.7686526 217.5,2.5708917 217.5,2.47201125 C217.5,2.27425035 217.5,2.1753699 217.6,2.07648945 C217.7,1.977609 217.8,1.87872855 218,1.7798481 C218.1,1.68096765 218.3,1.68096765 218.5,1.68096765 C218.7,1.68096765 218.8,1.68096765 219,1.7798481 C219.1,1.87872855 219.3,1.977609 219.4,2.07648945 L219.2,2.27425035 C219.1,2.1753699 219,2.07648945 218.9,2.07648945 C218.8,1.977609 218.7,1.977609 218.5,1.977609 C218.3,1.977609 218.2,1.977609 218.1,2.07648945 C218,2.1753699 218,2.27425035 218,2.3731308 C218,2.47201125 218,2.5708917 218.1,2.66977215 C218.2,2.7686526 218.3,2.86753305 218.5,2.86753305 C218.7,2.9664135 218.9,3.1641744 219,3.26305485 C219.1,3.3619353 219.2,3.5596962 219.2,3.65857665 C219.2,3.85633755 219.2,3.955218 219.1,4.1529789 C219,4.25185935 218.9,4.3507398 218.7,4.44962025 C218.5,4.44962025 218.3,4.44962025 218.1,4.44962025 Z" id="Path_00000085245756230751575560000007549588722250451612_"></path>
                    <path d="M220.6,4.44962025 C220.4,4.44962025 220.2,4.3507398 220.1,4.25185935 C220,4.1529789 219.9,3.955218 219.9,3.7574571 C219.9,3.65857665 219.9,3.65857665 219.9,3.5596962 C219.9,3.46081575 219.9,3.46081575 219.9,3.3619353 L220.2,1.7798481 L219.8,1.7798481 L219.9,1.48320675 L220.4,1.48320675 L220.6,0.5932827 L221,0.5932827 L220.8,1.48320675 L221.5,1.48320675 L221.4,1.87872855 L220.6,1.87872855 L220.3,3.5596962 C220.3,3.65857665 220.3,3.65857665 220.3,3.7574571 C220.3,3.85633755 220.3,3.955218 220.4,4.05409845 C220.5,4.1529789 220.5,4.1529789 220.7,4.1529789 C220.8,4.1529789 220.9,4.1529789 221,4.05409845 L221.1,4.3507398 C221,4.3507398 221,4.44962025 220.9,4.44962025 C220.8,4.44962025 220.7,4.44962025 220.6,4.44962025 Z" id="Path_00000046331570499529500700000001840515553976777916_"></path>
                    <path d="M222.5,4.44962025 C222.2,4.44962025 222,4.3507398 221.9,4.1529789 C221.8,3.955218 221.7,3.7574571 221.7,3.3619353 C221.7,3.06529395 221.7,2.86753305 221.8,2.5708917 C221.9,2.3731308 222,2.07648945 222.2,1.977609 C222.3,1.7798481 222.5,1.68096765 222.7,1.5820872 C222.9,1.48320675 223.1,1.3843263 223.3,1.3843263 C223.5,1.3843263 223.6,1.3843263 223.7,1.48320675 C223.8,1.5820872 223.9,1.68096765 224,1.7798481 L224,1.7798481 L224.1,1.3843263 L224.5,1.3843263 L223.9,4.25185935 L223.5,4.25185935 L223.5,3.85633755 L223.5,3.85633755 C223.4,3.955218 223.2,4.1529789 223,4.25185935 C222.8,4.3507398 222.7,4.44962025 222.5,4.44962025 Z M222.6,4.05409845 C222.8,4.05409845 222.9,4.05409845 223.1,3.955218 C223.3,3.85633755 223.4,3.7574571 223.6,3.5596962 L223.9,2.27425035 C223.8,2.07648945 223.7,1.977609 223.6,1.977609 C223.5,1.87872855 223.4,1.87872855 223.3,1.87872855 C223.2,1.87872855 223,1.87872855 222.9,1.977609 C222.8,2.07648945 222.6,2.1753699 222.5,2.27425035 C222.4,2.3731308 222.3,2.5708917 222.2,2.7686526 C222.1,2.9664135 222.1,3.1641744 222.1,3.3619353 C222.1,3.65857665 222.1,3.7574571 222.2,3.955218 C222.4,4.05409845 222.5,4.05409845 222.6,4.05409845 Z" id="Shape_00000046335170927912610740000002229551221325260686_"></path>
                    <path d="M225.7,4.44962025 C225.4,4.44962025 225.2,4.3507398 225.1,4.1529789 C224.9,3.955218 224.9,3.7574571 224.9,3.3619353 C224.9,3.06529395 224.9,2.86753305 225,2.5708917 C225.1,2.3731308 225.2,2.07648945 225.4,1.977609 C225.6,1.87872855 225.7,1.68096765 225.9,1.5820872 C226.1,1.48320675 226.3,1.3843263 226.5,1.3843263 C226.7,1.3843263 226.8,1.3843263 226.9,1.48320675 C227,1.5820872 227.1,1.68096765 227.2,1.7798481 L227.2,1.7798481 L227.3,1.1865654 L227.5,0.0988804501 L228,0.0988804501 L227.1,4.3507398 L226.7,4.3507398 L226.7,3.955218 L226.7,3.955218 C226.6,4.05409845 226.4,4.25185935 226.2,4.3507398 C226.1,4.3507398 225.9,4.44962025 225.7,4.44962025 Z M225.9,4.05409845 C226.1,4.05409845 226.2,4.05409845 226.4,3.955218 C226.6,3.85633755 226.7,3.7574571 226.9,3.5596962 L227.2,2.27425035 C227.1,2.07648945 227,1.977609 226.9,1.977609 C226.8,1.977609 226.7,1.87872855 226.6,1.87872855 C226.5,1.87872855 226.3,1.87872855 226.2,1.977609 C226.1,2.07648945 225.9,2.1753699 225.8,2.27425035 C225.7,2.3731308 225.6,2.5708917 225.5,2.7686526 C225.4,2.9664135 225.4,3.1641744 225.4,3.3619353 C225.4,3.65857665 225.4,3.7574571 225.5,3.955218 C225.6,4.05409845 225.7,4.05409845 225.9,4.05409845 Z" id="Shape_00000044172177772736007870000009566122723643309961_"></path>
                    <path d="M229.1,4.44962025 C228.8,4.44962025 228.5,4.3507398 228.3,4.1529789 C228.1,3.955218 228,3.65857665 228,3.26305485 C228,2.9664135 228,2.7686526 228.1,2.47201125 C228.2,2.27425035 228.3,2.07648945 228.5,1.87872855 C228.7,1.68096765 228.8,1.5820872 229,1.48320675 C229.2,1.3843263 229.4,1.3843263 229.6,1.3843263 C229.9,1.3843263 230.2,1.48320675 230.4,1.68096765 C230.6,1.87872855 230.7,2.1753699 230.7,2.5708917 C230.7,2.86753305 230.7,3.06529395 230.6,3.3619353 C230.5,3.5596962 230.4,3.7574571 230.2,3.955218 C230,4.1529789 229.9,4.25185935 229.7,4.3507398 C229.5,4.44962025 229.3,4.44962025 229.1,4.44962025 Z M229.2,4.05409845 C229.4,4.05409845 229.6,3.955218 229.7,3.85633755 C229.9,3.7574571 230,3.5596962 230.1,3.3619353 C230.2,3.1641744 230.3,2.86753305 230.3,2.66977215 C230.3,2.3731308 230.2,2.1753699 230.1,2.07648945 C230,1.977609 229.8,1.87872855 229.6,1.87872855 C229.4,1.87872855 229.2,1.977609 229.1,2.07648945 C228.9,2.1753699 228.8,2.3731308 228.7,2.5708917 C228.6,2.7686526 228.5,3.06529395 228.5,3.26305485 C228.5,3.5596962 228.6,3.7574571 228.7,3.85633755 C228.8,3.955218 229,4.05409845 229.2,4.05409845 Z" id="Shape_00000119095863991645339930000006469509204857040026_"></path>
                    <path d="M231.9,4.44962025 C231.7,4.44962025 231.5,4.44962025 231.3,4.3507398 C231.1,4.25185935 231,4.1529789 230.9,3.955218 L231.2,3.7574571 C231.3,3.85633755 231.4,3.955218 231.5,4.05409845 C231.6,4.1529789 231.8,4.1529789 231.9,4.1529789 C232.1,4.1529789 232.2,4.1529789 232.3,4.05409845 C232.4,3.955218 232.5,3.85633755 232.5,3.7574571 C232.5,3.65857665 232.5,3.5596962 232.4,3.46081575 C232.3,3.3619353 232.2,3.26305485 231.9,3.1641744 C231.7,3.06529395 231.6,2.9664135 231.5,2.86753305 C231.4,2.7686526 231.3,2.5708917 231.3,2.47201125 C231.3,2.27425035 231.3,2.1753699 231.4,2.07648945 C231.5,1.977609 231.6,1.87872855 231.8,1.7798481 C231.9,1.68096765 232.1,1.68096765 232.3,1.68096765 C232.5,1.68096765 232.6,1.68096765 232.8,1.7798481 C232.9,1.87872855 233.1,1.977609 233.2,2.07648945 L233,2.27425035 C232.9,2.1753699 232.8,2.07648945 232.7,2.07648945 C232.6,1.977609 232.5,1.977609 232.3,1.977609 C232.1,1.977609 232,1.977609 231.9,2.07648945 C231.8,2.1753699 231.8,2.27425035 231.8,2.3731308 C231.8,2.47201125 231.8,2.5708917 231.9,2.66977215 C232,2.7686526 232.1,2.86753305 232.3,2.86753305 C232.5,2.9664135 232.7,3.1641744 232.8,3.26305485 C232.9,3.3619353 233,3.5596962 233,3.65857665 C233,3.85633755 233,3.955218 232.9,4.1529789 C232.8,4.25185935 232.7,4.3507398 232.5,4.44962025 C232.3,4.44962025 232.1,4.44962025 231.9,4.44962025 Z" id="Path_00000160900939122870155010000018250834602820832688_"></path>
                    <path d="M236.3,4.44962025 C235.9,4.44962025 235.6,4.3507398 235.4,4.1529789 C235.2,3.955218 235.1,3.65857665 235.1,3.26305485 C235.1,3.1641744 235.1,3.06529395 235.1,2.9664135 C235.1,2.86753305 235.1,2.7686526 235.1,2.66977215 L235.5,0.49440225 L236,0.49440225 L235.5,2.7686526 C235.5,2.9664135 235.4,3.06529395 235.4,3.26305485 C235.4,3.5596962 235.5,3.7574571 235.6,3.955218 C235.7,4.1529789 235.9,4.1529789 236.2,4.1529789 C236.4,4.1529789 236.5,4.1529789 236.6,4.05409845 C236.7,3.955218 236.8,3.85633755 236.9,3.65857665 C237,3.46081575 237.1,3.26305485 237.1,2.9664135 L237.6,0.5932827 L238.1,0.5932827 L237.6,2.9664135 C237.5,3.3619353 237.4,3.65857665 237.3,3.85633755 C237.2,4.05409845 237,4.25185935 236.8,4.3507398 C236.8,4.3507398 236.5,4.44962025 236.3,4.44962025 Z" id="Path_00000096028379681813852240000000966041658594616721_"></path>
                    <path d="M238.5,4.3507398 L239.1,1.48320675 L239.5,1.48320675 L239.5,1.87872855 L239.5,1.87872855 C239.7,1.7798481 239.8,1.5820872 240,1.48320675 C240.2,1.3843263 240.3,1.3843263 240.5,1.3843263 C240.7,1.3843263 240.9,1.48320675 241,1.5820872 C241.1,1.68096765 241.2,1.87872855 241.2,2.07648945 C241.2,2.1753699 241.2,2.3731308 241.2,2.47201125 L240.8,4.3507398 L240.3,4.3507398 L240.7,2.5708917 C240.7,2.47201125 240.7,2.47201125 240.7,2.3731308 C240.7,2.3731308 240.7,2.27425035 240.7,2.1753699 C240.7,1.87872855 240.6,1.68096765 240.3,1.68096765 C240.2,1.68096765 240.1,1.68096765 239.9,1.7798481 C239.8,1.87872855 239.6,1.977609 239.4,2.1753699 L239,4.25185935 L238.5,4.25185935 L238.5,4.3507398 Z" id="Path_00000074431829846287614500000009305354060698060983_"></path>
                    <path d="M241.6,4.3507398 L242.2,1.48320675 L242.7,1.48320675 L242.1,4.3507398 L241.6,4.3507398 Z M242.6,0.889924051 C242.5,0.889924051 242.5,0.889924051 242.4,0.791043601 C242.3,0.791043601 242.3,0.69216315 242.3,0.5932827 C242.3,0.49440225 242.3,0.3955218 242.4,0.3955218 C242.5,0.29664135 242.6,0.29664135 242.6,0.29664135 C242.7,0.29664135 242.7,0.29664135 242.8,0.3955218 C242.9,0.3955218 242.9,0.49440225 242.9,0.5932827 C242.9,0.69216315 242.9,0.791043601 242.8,0.791043601 C242.7,0.791043601 242.7,0.889924051 242.6,0.889924051 Z" id="Shape_00000127006274344150213600000018107238499977348797_"></path>
                    <path d="M243.9,4.44962025 C243.6,4.44962025 243.4,4.3507398 243.3,4.1529789 C243.1,3.955218 243.1,3.7574571 243.1,3.3619353 C243.1,3.06529395 243.1,2.86753305 243.2,2.5708917 C243.3,2.27425035 243.4,2.07648945 243.6,1.977609 C243.7,1.7798481 243.9,1.68096765 244.1,1.5820872 C244.3,1.48320675 244.5,1.3843263 244.7,1.3843263 C244.9,1.3843263 245,1.3843263 245.1,1.48320675 C245.2,1.5820872 245.3,1.68096765 245.4,1.7798481 L245.4,1.7798481 L245.5,1.1865654 L245.7,0.0988804501 L246.2,0.0988804501 L245.3,4.3507398 L244.9,4.3507398 L244.9,3.955218 L244.9,3.955218 C244.8,4.05409845 244.6,4.25185935 244.4,4.3507398 C244.3,4.3507398 244.1,4.44962025 243.9,4.44962025 Z M244.1,4.05409845 C244.3,4.05409845 244.4,4.05409845 244.6,3.955218 C244.8,3.85633755 244.9,3.7574571 245.1,3.5596962 L245.4,2.27425035 C245.3,2.07648945 245.2,1.977609 245.1,1.977609 C245,1.87872855 244.9,1.87872855 244.8,1.87872855 C244.7,1.87872855 244.5,1.87872855 244.4,1.977609 C244.3,2.07648945 244.1,2.1753699 244,2.27425035 C243.9,2.3731308 243.8,2.5708917 243.7,2.7686526 C243.6,2.9664135 243.6,3.1641744 243.6,3.3619353 C243.6,3.65857665 243.6,3.7574571 243.7,3.955218 C243.8,4.05409845 244,4.05409845 244.1,4.05409845 Z" id="Shape_00000180338632981488270320000000790820104586202510_"></path>
                    <path d="M247.4,4.44962025 C247.1,4.44962025 246.8,4.3507398 246.6,4.1529789 C246.4,3.955218 246.3,3.65857665 246.3,3.26305485 C246.3,2.9664135 246.3,2.7686526 246.4,2.47201125 C246.5,2.27425035 246.6,2.07648945 246.8,1.87872855 C247,1.68096765 247.1,1.5820872 247.3,1.48320675 C247.5,1.3843263 247.7,1.3843263 247.9,1.3843263 C248.2,1.3843263 248.5,1.48320675 248.7,1.68096765 C248.9,1.87872855 249,2.1753699 249,2.5708917 C249,2.86753305 249,3.06529395 248.9,3.3619353 C248.8,3.5596962 248.7,3.7574571 248.5,3.955218 C248.3,4.1529789 248.2,4.25185935 248,4.3507398 C247.8,4.44962025 247.6,4.44962025 247.4,4.44962025 Z M247.4,4.05409845 C247.6,4.05409845 247.8,3.955218 247.9,3.85633755 C248.1,3.7574571 248.2,3.5596962 248.3,3.3619353 C248.4,3.1641744 248.5,2.86753305 248.5,2.66977215 C248.5,2.3731308 248.4,2.1753699 248.3,2.07648945 C248.2,1.977609 248,1.87872855 247.8,1.87872855 C247.6,1.87872855 247.4,1.977609 247.3,2.07648945 C247.1,2.1753699 247,2.3731308 246.9,2.5708917 C246.8,2.7686526 246.7,3.06529395 246.7,3.26305485 C246.7,3.5596962 246.8,3.7574571 246.9,3.85633755 C247.1,3.955218 247.2,4.05409845 247.4,4.05409845 Z" id="Shape_00000048480369812604088690000010044530034130916516_"></path>
                    <path d="M250.2,4.44962025 C250,4.44962025 249.8,4.44962025 249.6,4.3507398 C249.4,4.25185935 249.3,4.1529789 249.2,3.955218 L249.5,3.7574571 C249.6,3.85633755 249.7,3.955218 249.8,4.05409845 C249.9,4.1529789 250.1,4.1529789 250.2,4.1529789 C250.4,4.1529789 250.5,4.1529789 250.6,4.05409845 C250.7,3.955218 250.8,3.85633755 250.8,3.7574571 C250.8,3.65857665 250.8,3.5596962 250.7,3.46081575 C250.6,3.3619353 250.5,3.26305485 250.2,3.1641744 C250,3.06529395 249.9,2.9664135 249.8,2.86753305 C249.7,2.7686526 249.6,2.5708917 249.6,2.47201125 C249.6,2.27425035 249.6,2.1753699 249.7,2.07648945 C249.8,1.977609 249.9,1.87872855 250.1,1.7798481 C250.2,1.68096765 250.4,1.68096765 250.6,1.68096765 C250.8,1.68096765 250.9,1.68096765 251.1,1.7798481 C251.2,1.87872855 251.4,1.977609 251.5,2.07648945 L251.3,2.27425035 C251.2,2.1753699 251.1,2.07648945 251,2.07648945 C250.9,1.977609 250.8,1.977609 250.6,1.977609 C250.4,1.977609 250.3,1.977609 250.2,2.07648945 C250.1,2.1753699 250.1,2.27425035 250.1,2.3731308 C250.1,2.47201125 250.1,2.5708917 250.2,2.66977215 C250.3,2.7686526 250.4,2.86753305 250.6,2.86753305 C250.8,2.9664135 251,3.1641744 251.1,3.26305485 C251.2,3.3619353 251.3,3.5596962 251.3,3.65857665 C251.3,3.85633755 251.3,3.955218 251.2,4.1529789 C251.1,4.25185935 251,4.3507398 250.8,4.44962025 C250.6,4.44962025 250.4,4.44962025 250.2,4.44962025 Z" id="Path_00000103978848311849896830000013747597399700881294_"></path>
                </g>
                <path d="M25.5,2.86753305 C26.5,2.86753305 27.4,3.26305485 28,4.1529789 L28,0.5932827 C27.2,0.1977609 26.3,0 25.4,0 C23.9,0 22.4,0.69216315 21.3,1.7798481 C20.3,2.86753305 19.7,4.3507398 19.7,5.932827 C19.7,7.61379466 20.2,9.09700141 21.4,10.1846864 C22.5,11.2723713 23.9,11.865654 25.4,11.865654 C26.3,11.865654 26.9,11.6678931 27.9,11.3712518 L27.9,7.81155556 C27.3,8.50371871 26.4,8.99812096 25.5,8.99812096 C23.8,8.99812096 22.6,7.71267511 22.6,5.932827 C22.6,4.1529789 23.8,2.86753305 25.5,2.86753305 M16.6,11.5690127 L19.4,11.5690127 L19.4,0.29664135 L16.6,0.29664135 L16.6,11.5690127 Z M10.2,9.09700141 L9.6,9.09700141 L9.6,2.7686526 L10.3,2.7686526 C12.1,2.7686526 13.4,3.85633755 13.4,5.932827 C13.3,8.10819691 11.8,9.09700141 10.2,9.09700141 M10.7,0.29664135 L6.7,0.29664135 L6.7,11.5690127 L10.7,11.5690127 C13.7,11.5690127 16.2,9.09700141 16.2,5.932827 C16.2,2.7686526 13.7,0.29664135 10.7,0.29664135 M0,11.5690127 L2.8,11.5690127 L2.8,7.11939241 L5.9,7.11939241 L5.9,4.64738115 L2.8,4.64738115 L2.8,2.7686526 L6.2,2.7686526 L6.2,0.29664135 L0,0.29664135 L0,11.5690127 L0,11.5690127 Z" id="Shape_00000049943618520730255470000018405466069316950451_" fill="#003256"></path>
            </g>
            <text id="Los-productos-de-dep" font-family="SFProText-Bold, SF Pro Text" font-size="8" font-weight="bold" line-spacing="16" fill="#333333">
                <tspan x="16" y="7.99819972">Los productos de depósitos de Bank of America:</tspan>
            </text>
        </g>
    </g>
</svg>